<?xml version="1.0" encoding="UTF-8" standalone="no"?>
<!-- Created with Inkscape (http://www.inkscape.org/) -->

<svg
   width="309.56253mm"
   height="669.92499mm"
   viewBox="0 0 309.56253 669.92499"
   version="1.1"
   id="svg5"
   inkscapeVersion="1.1.2 (b8e25be833, 2022-02-05)"
   sodipodiDocname="BG_Layer2.svg"
   xmlnsInkscape="http://www.inkscape.org/namespaces/inkscape"
   xmlnsSodipodi="http://sodipodi.sourceforge.net/DTD/sodipodi-0.dtd"
   xmlns="http://www.w3.org/2000/svg"
   xmlnsSvg="http://www.w3.org/2000/svg">
  <sodipodiNamedview
     id="namedview7"
     pagecolor="#505050"
     bordercolor="#eeeeee"
     borderopacity="1"
     inkscapePageshadow="0"
     inkscapePageopacity="0"
     inkscapePagecheckerboard="0"
     inkscapeDocument-units="mm"
     showgrid="false"
     inkscapeZoom="0.183293"
     inkscapeCx="-881.10294"
     inkscapeCy="1353.0249"
     inkscapeWindow-width="1920"
     inkscapeWindow-height="1009"
     inkscapeWindow-x="-8"
     inkscapeWindow-y="-8"
     inkscapeWindow-maximized="1"
     inkscapeCurrent-layer="layer1"
     fit-margin-top="0"
     fit-margin-left="0"
     fit-margin-right="0"
     fit-margin-bottom="0" />
  <defs
     id="defs2" />
  <g
     inkscapeLabel="Layer 1"
     inkscapeGroupmode="layer"
     id="layer1"
     transform="translate(86.936773,136.12045)">
    <path
       style="fill:#234b62;fill-opacity:1;stroke-width:0.264583"
       d="m -86.936773,198.84204 v -334.96249 h 33.99895 33.99896 v 15.54479 c 0,14.46387 0.0369,15.73794 0.53103,18.3224 0.29206,1.52768 0.88948,5.218384 1.3276,8.201564 0.89183,6.07246 1.02967,6.90044 2.11427,12.7 0.42183,2.25557 1.07404,5.82745 1.44936,7.9375 1.18352,6.65381 4.0267996,17.90334 5.8322696,23.07555 1.21871,3.49129 3.40251,12.2884 4.07996,16.435487 1.10489,6.763718 2.12361,16.822356 2.12651,20.99678 7.9e-4,1.191958 0.10612,2.231856 0.23398,2.310879 0.39031998,0.241226 2.12910998,-2.226985 3.34109,-4.742659 2.35765,-4.893694 4.09355,-12.20642 4.0972,-17.260067 l 0.002,-2.972567 -1.48044,-1.916078 c -2.51289,-3.252345 -3.08366,-4.684165 -3.82740002,-9.601285 -1.08523,-7.17496 -1.39499,-13.65716 -1.44763,-30.29479 -0.0397,-12.55476 -0.13589,-16.46603 -0.47491998,-19.31458 -0.43837,-3.683374 -0.82079,-8.682794 -1.12389,-14.692614 -0.15495,-3.07242 -0.12421,-3.48904 0.28237,-3.82647 0.39977,-0.33178 0.49786,-0.32176 0.79233,0.081 0.41898998,0.57301 1.10710998,4.8978 1.60760998,10.10375 0.20986,2.18281 0.55541002,5.159384 0.76789002,6.614584 0.56817,3.89116 1.53521,19.90392 1.40884,23.32836 -0.06,1.62549 -0.23389,3.11377 -0.38645,3.30729 -0.19383,0.24586 -0.17418,2.78291 0.0652,8.42165 0.38299,9.02082 0.77741,13.86972 1.33098,16.36278 0.34219,1.54109 2.04558,5.95933 2.49875,6.48123 0.59594,0.68632 0.78657,-17.10596 0.26602,-24.82839 -0.40375,-5.98966 -0.43855,-43.229964 -0.0424,-45.376044 0.64543,-3.49655 1.59706,-5.73368 3.7974604,-8.9272 2.3731,-3.44418 4.31341,-4.64758 5.85983,-3.63433 1.1684,0.76557 0.94329,1.75996 -0.62646,2.76726 -1.86717,1.19817 -4.07922,3.69187 -5.01597,5.65466 -1.4075004,2.94915 -1.7115904,4.78479 -1.6062204,9.69586 0.0515,2.40109 0.078,4.90141 0.0589,5.556254 -0.0191,0.65484 -0.0996,6.72703 -0.17879,13.49375 -0.0813,6.94881 -0.27011,13.05158 -0.43379,14.02292 -0.2387,1.41644 -0.18234,2.79316 0.31952,7.8052 0.52389,5.23209 0.61379,7.6833 0.64114,17.48052 0.0175,6.2673 0.11879,11.535813 0.22508,11.707808 0.1063,0.171993 0.0855,0.312714 -0.0461,0.312714 -0.13165,0 -0.31403,1.458516 -0.40529,3.241146 -0.29488,5.759984 -1.31754,9.945298 -3.90978,16.00105 -1.25203,2.924884 -3.59568,7.5372538 -5.34180002,10.5128218 -0.72875,1.241861 -0.76031,1.419397 -0.58795,3.307291 0.14511,1.58937101 1.30229,7.754289 2.12815002,11.337737 l 0.14094,0.6115082 1.0823,-0.7959382 c 2.47909,-1.823143 5.06517,-4.223401 6.01894,-5.58645 1.18767,-1.69731 5.5699404,-10.397696 7.0413304,-13.9795668 l 1.01473,-2.470195 -0.63607,-2.292305 c -0.61809,-2.227498 -0.6407,-2.651368 -0.79964,-14.992307 -0.13273,-10.306104 -0.25718,-13.373284 -0.66022,-16.271874 -0.42225,-3.03674 -0.50174,-5.41511 -0.53058,-15.875 -0.0187,-6.76672 -0.12535,-15.91055 -0.2371,-20.31963 -0.14716,-5.80648 -0.11456,-8.72054 0.11827,-10.57026 0.8653,-6.87453 3.99038,-12.710754 6.66849,-12.453704 0.76145,0.0731 0.88778,0.19049 0.95614,0.88853 0.0632,0.64556 -0.18255,1.10293 -1.24519,2.31726 -0.85484,0.97688 -1.38985,1.86374 -1.50994,2.502984 -0.22139,1.17843 0.31268,29.87315 0.71784,38.56835 0.15614,3.35109 0.28342,13.45577 0.28283,22.45483 -5.3e-4,8.999065 0.0978,16.258509 0.21859,16.132099 0.37175,-0.388982 1.31274,-5.236514 1.72973,-8.910722 0.21785,-1.91947 0.51035,-7.061817 0.65002,-11.427447 0.30999,-9.68946 0.41416,-11.34985 1.11211,-17.72708 0.57616,-5.26439 0.56924,-7.90952 -0.0484,-18.52083 -0.37459,-6.43542 -0.32659,-13.26569 0.10924,-15.54356 0.4919,-2.57094 3.00205,-10.247514 3.55623,-10.875724 0.62325,-0.7065 1.74381,-1.22968 2.63375,-1.22968 0.95413,0 2.16548,0.91341 2.16548,1.63286 0,0.89753 -0.80923,2.31018 -2.18682,3.8175 l -1.30976,1.433084 -0.22455,2.70984 c -0.1235,1.49042 -0.23805,6.99609 -0.25455,12.23484 -0.0165,5.23875 -0.14371,10.89422 -0.28271,12.56771 -0.13899,1.67349 -0.35856,11.67474 -0.48792,22.225 -0.12937,10.55026 -0.36853,20.432447 -0.53147,21.960415 -0.37617,3.527449 -1.33219,8.239821 -2.49599,12.303125 -0.50016,1.74625 -0.79961,2.996406 -0.66543,2.778125 0.13418,-0.218281 0.91774,-1.468437 1.74126,-2.778125 3.13942,-4.992822 3.68876,-6.267913 5.24817,-12.181699 1.93252,-7.328781 1.97894,-7.738997 1.97894,-17.488491 0,-5.66669 -0.15259,-10.81101 -0.42491,-14.32452 -0.42618,-5.49884 -0.42593,-5.66342 0.0374,-24.66466 0.0621,-2.54662 0.23299,-5.22552 0.37975,-5.95313 0.14676,-0.7276 0.50261,-2.54227 0.79078,-4.03259 0.62137,-3.21355 0.88946,-3.7781 2.56967,-5.4112 1.49109,-1.449304 2.45709,-1.892704 3.36849,-1.546184 0.8397,0.31925 1.01624,0.65077 0.99932,1.876694 -0.0172,1.25079 -0.78884,3.0542 -2.03025,4.74534 -1.86628,2.54239 -1.73612,0.0908 -1.72615,32.51323 0.01,31.153683 0.0217,30.808669 -1.23986,35.222419 -0.55658,1.947211 -3.36395,8.955442 -4.46974,11.158077 -0.85785,1.708774 -3.88789,5.436031 -4.32687,5.322488 -0.11886,-0.03074 -0.83301,0.6533908 -1.58702,1.5202928 -0.75401,0.866902 -2.12529,2.114484 -3.04728,2.772404 -1.52226,1.086268 -1.90064,1.569453 -4.11651,5.256755 -3.0341,5.048888 -6.89752,9.808702 -10.4770804,12.9079892 -2.3621,2.045181 -2.76466,2.522022 -3.40895,4.037981 -0.56701,1.334119 -0.69693,1.972887 -0.58033,2.853251 1.08429,8.186443 1.50646,15.443385 1.50757,25.914717 10e-4,10.037162 -0.87316,15.5575 -3.5231,22.245328 l -1.18095002,2.980457 -0.0312,3.704167 c -0.0349,4.135487 -0.30728,6.701371 -1.11833998,10.534329 -0.30222,1.428255 -0.50476,2.641558 -0.45009,2.696226 0.27383,0.273831 5.12585,0.751946 9.47951,0.934106 9.3384804,0.390729 16.0103604,0.816084 16.6026004,1.058474 0.75442,0.308761 0.8063,1.446374 0.0836,1.833147 -0.28144,0.150624 -1.68042,0.468397 -3.10885,0.706165 -3.15349,0.524909 -4.05235,0.927986 -4.05235,1.817193 0,0.480493 -0.25687,0.782772 -0.99219,1.167603 l -0.99219,0.519261 9.39271,-0.04992 c 10.01352,-0.05322 10.78448,0.01505 14.91917,1.321202 1.65933,0.524185 2.43754,0.954725 3.64197,2.014903 1.64624,1.449083 2.13351,2.351151 1.78254,3.299921 -0.3287,0.88855 -1.27209,1.11926 -4.57677,1.11926 -2.33535,0 -3.3238,0.11885 -4.54684,0.5467 -3.64608,1.27548 -5.75452,1.5582 -11.66554,1.56424 -4.40622,0.005 -6.27345,0.12047 -8.73125,0.54228 -5.12219,0.87905 -12.4334104,0.94498 -19.7779604,0.17835 -0.38188,-0.0399 -0.55847,0.16603 -0.69497,0.81027 -0.10064,0.47503 -0.50425,1.34916 -0.89691,1.9425 -0.39265,0.59334 -0.6434,1.14931 -0.55723,1.23548 0.0862,0.0862 1.97033,0.2446 4.18701,0.35206 3.7785,0.18318 7.31969,0.66619 9.45254,1.28933 0.50836,0.14852 1.64258,0.27004 2.52048,0.27004 2.5796804,0 6.0263804,0.51815 6.5402804,0.98322 0.25629,0.23194 0.46598,0.69817 0.46598,1.03606 0,1.01087 -1.05442,1.47143 -3.71624,1.6232 -2.32992,0.13285 -2.37358,0.14745 -1.92469,0.64347 0.34867,0.38527 0.39163,0.61533 0.17834,0.95506 -0.44621,0.71073 -2.9236804,0.68115 -7.5019904,-0.0896 -2.25557,-0.3797 -5.36922,-0.75792 -6.91922,-0.84047 -2.5506,-0.13584 -2.93371,-0.0942 -4.0349,0.43891 -1.0193,0.49343 -1.21671,0.71014 -1.21671,1.33563 0,0.5077 -0.25857,0.96419 -0.80799,1.4265 -0.54816,0.46124 -1.1909696,1.594 -1.9989396,3.5225 -0.65503,1.56345 -1.57136,3.50051 -2.03629,4.30458 l -0.84533,1.46196 -0.16576,15.34583 c -0.12745,11.79917 -0.26752,16.20192 -0.60604,19.05 -0.36989,3.11189 -0.41896,5.52328 -0.30691,15.08125 0.12992,11.08315 0.36077,14.913 0.9672,16.0461 0.21126,0.39476 0.21288,0.50247 0.006,0.37439 -0.37151,-0.22961 -0.37195,-0.27096 0.10041,9.418 0.21526,4.4155 0.51363,10.76661 0.66303,14.11359 0.72323,16.20197 2.73135,39.64802 4.2149796,49.2125 0.29345,1.89177 0.83633,5.88036 1.2064,8.86354 0.37008,2.98318 0.74322,5.87915 0.82922,6.43546 l 0.15635,1.01153 1.5013,-1.48302 c 1.89168,-1.86864 2.50728,-2.28242 5.51332998,-3.70596 4.44832002,-2.10651 8.26781002,-5.20084 9.56972002,-7.75277 1.1849404,-2.3227 1.8834404,-5.05616 1.8834404,-7.37055 0,-2.16469 -0.0211,-2.23774 -0.93839,-3.25311 -1.0026304,-1.10979 -4.1554304,-2.86445 -7.6101404,-4.23534 -4.47331,-1.77509 -6.45012,-3.20514 -7.88249,-5.7023 -0.6977,-1.21634 -0.76214,-1.54855 -0.76441,-3.94092 -0.004,-4.0605 1.62291,-11.50135 3.12213,-14.28059 1.12005,-2.07637 2.74542998,-3.26856 8.67778,-6.36508 3.0403,-1.58697 6.5037204,-3.52504 7.6964804,-4.30686 2.00539,-1.31448 4.08481,-3.37487 4.80676,-4.76279 0.51531,-0.99063 0.35575,-3.26131 -0.33313,-4.74078 -1.25415,-2.69341 -3.24619,-4.05784 -7.6932,-5.26934 -3.3063104,-0.90074 -4.2128804,-0.72218 -5.3344804,1.05072 -0.96124,1.51937 -1.67646,1.85309 -2.88727,1.34718 -1.19058,-0.49745 -1.52693002,-1.36708 -1.16074,-3.00109 0.36838,-1.64381 1.04765,-2.3285 3.37045,-3.39741 2.42017,-1.11371 4.23389,-1.16811 8.3858604,-0.25149 1.60073,0.35338 3.83562,0.8414 4.96642,1.08445 4.45206,0.95697 6.75081,2.86761 9.71796,8.07725 l 1.71979,3.01956 -0.007,3.18151 c -0.0117,5.3916 -1.21954,9.08357 -3.81721,11.66765 -1.39899,1.39168 -2.24443,1.88198 -7.24254,4.20023 -1.72103,0.79825 -3.87537,1.98387 -4.78745,2.63469 -2.73049,1.94845 -5.3514004,5.12641 -5.9481304,7.21239 -0.31405,1.09781 0.31863,4.35713 1.10688,5.70217 1.7673204,3.01569 5.6925304,5.59503 13.0224204,8.55725 2.86939,1.15962 3.34304,1.44982 4.9208,3.01493 2.2335,2.2156 2.58011,2.91976 2.76411,5.61547 0.21693,3.17804 0.0338,3.60735 -2.01159,4.71529 -2.46999,1.33795 -3.16475,1.82116 -4.35041,3.02578 -0.58208,0.5914 -1.9916,1.84917 -3.13226,2.79506 -2.34166,1.9418 -5.02423,5.129 -6.24556,7.42045 -0.54094,1.01491 -1.15671,1.74204 -1.80681,2.13355 -0.54241,0.32665 -1.9387004,1.26886 -3.1028704,2.09375 -1.16416,0.82492 -2.53224,1.64105 -3.04016,1.81361 -1.11848,0.38002 -2.91296,2.0701 -2.91296,2.74347 0,0.86259 1.8668,5.5668 2.96649,7.47538 0.83268,1.44515 2.27799,3.04381 6.5781304,7.27604 3.60169,3.5448 5.65293,5.76476 5.92068,6.40765 0.55118,1.32339 0.56136,7.86495 0.0159,10.17839 -0.63719,2.70221 -2.26382,7.51805 -3.11111,9.21083 -1.11145,2.22052 -4.32413,7.00916 -6.3902904,9.525 -0.95607,1.16417 -2.42475,2.99736 -3.26372,4.07374 l -1.5254,1.95707 0.0156,2.01168 c 0.0248,3.19021 0.50657,3.88122 6.6363504,9.51828 1.91233,1.7586 3.85845,3.76563 4.32469,4.46003 0.81216,1.20956 0.84126,1.34302 0.69355,3.18129 -0.19326,2.40512 -0.51108,3.15127 -2.39461,5.62187 -1.80718,2.37045 -2.49177,3.00556 -6.6297704,6.15058 -6.63253002,5.04095 -12.19166,9.41636 -12.73304,10.02176 -0.69895,0.78163 -4.8063896,6.8671 -6.3175696,9.35995 -1.75244,2.89084 -2.42136,4.35062 -3.34927,7.30906 -0.906,2.88854 -0.95792,3.86033 -0.67686,12.66698 0.0302,0.94589 -0.15921,3.56526 -0.42088,5.82083 -1.65974,14.30669 -1.61291,14.00366 -3.05749,19.7843 -0.57855,2.31519 -0.6775,3.07629 -0.44184,3.39858 0.55422,0.75795 1.5343,0.32678 2.47817,-1.09017 1.09761,-1.64777 1.37894,-1.94958 6.65883,-7.14375 2.3667596,-2.32833 5.0628196,-5.20462 5.9912496,-6.39175 3.32969,-4.25746 5.32277998,-9.14273 5.00240998,-12.26137 -0.25769,-2.50846 -1.13684998,-3.85704 -4.44453998,-6.81768 -1.63717,-1.46539 -3.50041,-3.2026 -4.14053,-3.86046 l -1.1638496,-1.1961 0.1829996,-2.19882 c 0.11748,-1.41158 0.4017,-2.67247 0.79384,-3.52173 0.79801,-1.72826 3.23147,-4.96433 5.96885,-7.9375 1.20582,-1.30969 2.56505998,-2.84049 3.02053998,-3.40175 1.02755,-1.26622 5.42158002,-5.02153 7.11200002,-6.07822 0.70325,-0.43958 1.25677,-0.98491 1.25677,-1.23814 0,-0.26906 1.15015,-1.29898 2.8366704,-2.54014 3.34082,-2.45861 5.32776,-4.37345 7.06645,-6.81 2.46524,-3.45472 2.80056,-5.53405 1.42812,-8.85587 -0.77944,-1.88653 -1.10013,-2.28806 -4.47572,-5.60401 -3.82263,-3.7551 -5.9000104,-6.3341 -6.1991504,-7.69609 -0.33488,-1.52469 1.4749504,-4.26032 6.1111504,-9.23724 4.26965,-4.58343 8.97985,-11.29493 9.95587,-14.18603 0.2636,-0.78081 0.55585,-2.67124 0.64945,-4.20098 0.14196,-2.32018 0.10138,-2.85795 -0.24476,-3.2435 -0.22822,-0.25421 -0.6278,-0.99798 -0.88796,-1.65282 -0.26015,-0.65485 -0.83569,-1.6899 -1.27896,-2.30011 -0.44328,-0.61023 -1.40127,-1.96635 -2.12887,-3.0136 -0.7276,-1.04727 -2.36037,-3.32325 -3.62836,-5.05772 -4.72335,-6.46102 -4.94201,-7.06181 -5.0365,-13.83866 -0.0948,-6.80188 0.70106,-10.14881 3.20621,-13.4828 0.55095,-0.73324 1.38358,-1.86894 1.8503,-2.52378 1.28442,-1.80216 6.96893,-6.63646 9.03231,-7.68138 1.04458,-0.52901 2.58589,-1.13324 8.078,-3.16675 0.73212,-0.27109 2.38529,-0.64034 3.67373,-0.82058 2.04839,-0.28657 2.66211,-0.26881 4.88658,0.14132 4.54253,0.83754 5.88888,1.33768 8.14496,3.02564 2.25208,1.685 3.10378,2.52547 4.16165,4.10689 0.66721,0.99743 0.95643,2.80736 0.4486,2.80736 -0.1319,0 -0.17754,0.23813 -0.10143,0.52917 0.28297,1.08209 -0.64579,0.47553 -3.58753,-2.34294 -3.71642,-3.56074 -6.41567,-5.21354 -8.07979,-4.94744 -1.00214,0.16025 -3.63134,1.50624 -5.71852,2.92753 -0.50932,0.34684 -1.3504,0.91768 -1.86906,1.26857 -1.21596,0.82264 -3.39633,3.73735 -4.71019,6.29661 -1.39356,2.71449 -1.74148,4.9 -1.53303,9.62996 0.18507,4.19925 0.37958,5.08182 1.42009,6.44332 0.40562,0.53075 1.22878,2.09611 1.82924,3.47855 0.60046,1.38245 2.40943,4.69141 4.01995,7.35328 3.1398,5.18945 4.96542,9.30521 5.35663,12.07622 0.12461,0.88267 0.2513,3.23783 0.28152,5.23364 0.0545,3.60069 0.0489,3.63857 -0.72709,4.89479 -0.79933,1.29402 -2.40121,2.62657 -8.83741,7.35145 -4.35615,3.19788 -6.01743,5.06148 -7.7834,8.73125 -1.49349,3.10351 -3.26317,7.76525 -3.49861,9.21615 -0.26006,1.60253 0.92436,3.39971 4.60474,6.98701 3.79067,3.6948 7.14334,7.56028 8.14296,9.38848 0.92834,1.69785 1.49881,4.52493 1.18883,5.89158 -0.25391,1.11948 -1.75854,2.7102 -6.23222,6.58884 -1.1572,1.00327 -3.39638,3.32499 -4.97596,5.15937 -3.9027,4.53224 -5.21376,5.85912 -9.82803,9.94672 -4.6229,4.09522 -8.0769004,7.58656 -8.6934004,8.78734 -0.27732,0.54018 -0.43497,1.49818 -0.43539,2.64584 l -8e-4,1.79908 1.90146,1.7198 c 4.9550804,4.48164 6.1584904,6.20072 7.5081804,10.72546 0.57176,1.91678 0.71416,2.95474 0.74276,5.41412 0.0321,2.75852 -0.0264,3.16531 -0.62607,4.35538 -0.92823,1.84209 -16.52347042,17.45626 -20.4987804,20.52365 -4.72111,3.64287 -8.6848996,7.82281 -12.0174396,12.67278 l -1.35044,1.96532 0.0186,17.08468 c 0.0161,14.71213 0.0686,16.94886 0.37801,16.10693 0.51336,-1.39666 0.53734,-1.95305 0.29567,-6.86109 -0.24362,-4.94766 -0.10843,-5.6133 1.11141,-5.47236 0.54144,0.0625 0.77826,0.29374 0.99836,0.97473 0.23455,0.72567 0.28406,0.181 0.26458,-2.91042 -0.0218,-3.46948 0.0286,-3.90144 0.57457,-4.92339 0.64118,-1.20007 1.63367,-1.69159 2.29969,-1.13885 0.31302,0.2598 0.40776,0.1401 0.5525,-0.69805 0.0961,-0.55639 0.40929,-1.9641 0.69601,-3.12827 1.1094796,-4.50482 2.5832696,-6.54513 4.0388496,-5.59139 0.7358,0.48213 0.95511,1.47566 0.69398,3.14399 -0.10819,0.69123 -0.17213,1.25677 -0.14208,1.25677 0.0301,0 0.60302,-0.94379 1.27327,-2.09732 1.36865,-2.35553 2.59126,-3.45893 3.8326,-3.45893 1.10592998,0 1.75788998,0.94832 1.49325998,2.17207 -0.27678,1.27993 -1.29896998,3.21781 -3.07604998,5.83158 -0.8657,1.27331 -1.45115,2.3151 -1.30099,2.3151 0.15016,0 0.46771,0.29713 0.70566,0.6603 0.81471,1.24341 0.33382,2.28407 -2.36296,5.11349 -2.25865,2.36974 -3.61373,4.01275 -3.61373,4.38153 0,0.0835 0.55909,-0.20278 1.24242,-0.63614 1.42954,-0.90659 2.19736,-0.98946 2.81761,-0.30408 0.96353,1.06468 0.36261,2.08716 -3.20014,5.44518 -1.05502,0.99438 -1.9182196,1.91262 -1.9182196,2.04051 0,0.1279 0.33337,0.23255 0.7408296,0.23255 0.40746,0 0.87866,0.13782 1.04712,0.30628 0.44138,0.44138 0.87939,0.003 2.18311,-2.19313 0.60703,-1.02177 1.61644,-2.39292 2.24314,-3.04697 0.9711,-1.01351 1.26983,-1.17666 2.02191,-1.10427 1.34173998,0.12917 1.55292998,1.04815 0.67938,2.95625 -0.37628,0.82187 -0.62472,1.49434 -0.55209,1.49434 0.0726,0 0.92983,-0.68662 1.90489998,-1.52585 0.97507,-0.83921 2.22322002,-1.8042 2.77367002,-2.1444 0.7466,-0.46141 1.19812,-1.05368 1.77763,-2.33177 1.48082,-3.26589 3.48964,-5.37507 5.11928,-5.37507 0.38497,0 0.8282104,0.21471 0.9951704,0.48205 0.27061,0.43331 0.55839,0.22492 2.84652,-2.06134 3.49562,-3.49277 5.92331,-4.68546 7.03551,-3.45649 0.49291,0.54467 0.47042,0.79036 -0.23084,2.52224 l -0.42853,1.05834 0.86279,-1.04019 c 0.47453,-0.57211 1.34377,-1.64367 1.93163,-2.38125 1.17291,-1.47161 6.74899,-5.4189 7.67564,-5.43353 0.69071,-0.0108 1.17812,0.474 1.17481,1.16882 -0.004,0.84447 -1.20137,3.21466 -2.59694,5.14075 -1.53263,2.11526 -1.76191,2.64514 -1.23248,2.84829 0.63891,0.24519 0.45302,0.56698 -0.53362,0.92377 -0.83707,0.30268 -0.92604,0.43143 -0.92604,1.34003 0,0.55285 0.12619,1.00518 0.28042,1.00518 0.15423,0 0.95423,-0.62508 1.77779,-1.38906 0.82355,-0.76399 1.66627,-1.5458 1.8727,-1.73736 0.20643,-0.19156 1.15027,-0.71443 2.09741,-1.16192 2.10655,-0.99531 3.04943,-0.84807 3.18077,0.49673 0.11729,1.20108 -1.01944,2.3549 -3.96333,4.02288 -1.3572,0.76899 -3.12147,1.97266 -3.9206,2.67481 -1.36578,1.20007 -1.42744,1.30595 -1.02772,1.76498 0.97999,1.12535 0.78086,2.89819 -0.39282,3.49724 -0.81457,0.41574 -2.77139,0.81356 -4.03874,0.82108 -0.60027,0.003 -1.457,0.0796 -1.90383,0.16893 l -0.81242,0.16249 0.56542,0.76477 c 0.7349,0.99402 0.42493,1.97824 -0.86026,2.73151 -0.74717,0.43794 -1.49576,0.56033 -3.90115,0.63786 -2.8617,0.0922 -2.97656,0.1184 -2.97656,0.67826 0,0.32027 -0.16191,0.80375 -0.35979,1.07436 -0.31689,0.43339 -0.27943,0.56116 0.31428,1.07186 0.62327,0.53609 0.76503,0.55512 1.88114,0.25214 0.66389,-0.18018 1.83656,-0.58023 2.60593,-0.88897 1.78234,-0.71522 3.1544,-0.72588 3.89487,-0.0302 l 0.56533,0.5311 1.56839,-0.5502 c 0.86261,-0.30261 2.14994,-0.57137 2.86072,-0.59725 1.18166,-0.043 1.36093,0.0339 2.09334,0.89845 l 0.80101,0.94546 1.30668,-0.87932 c 0.96446,-0.64905 1.5977,-0.87934 2.41781,-0.87934 2.51222,0 2.33134,1.95096 -0.3044,3.28314 -0.47294,0.23905 -0.85995,0.52085 -0.86002,0.62626 -8e-5,0.10541 1.24098,0.19164 2.7579,0.19164 2.39219,0 2.85722,0.074 3.50585,0.55772 0.56413,0.42071 0.74783,0.77819 0.74783,1.45521 0,0.8142 -0.12276,0.95763 -1.32291,1.54543 -1.10127,0.5394 -1.81809,0.66598 -4.27832,0.75549 l -2.9554,0.10755 0.14342,0.88379 c 0.23277,1.43444 -0.0998,2.22655 -1.1127,2.64975 -1.32935,0.55544 -2.79857,0.46686 -4.14679,-0.25001 -1.02282,-0.54382 -1.45097,-0.61346 -3.14826,-0.51191 -1.08045,0.0646 -2.40334,0.303 -2.93976,0.52972 -1.26747,0.53568 -2.77976,0.3102 -4.81667,-0.71813 -0.85725,-0.43281 -1.59193,-0.7869 -1.63262,-0.7869 -0.0407,0 -0.1524,0.35703 -0.24825,0.79343 -0.0959,0.43638 -0.42945,0.97216 -0.74135,1.19063 -1.1788404,0.82568 -6.0134004,0.24431 -8.8793704,-1.06778 -1.70863002,-0.78224 -1.60649002,-0.77364 -1.43574002,-0.1207 0.1872,0.71588 -0.37622,2.00369 -1.07772,2.46332 -0.40814998,0.26744 -1.85453998,0.41817 -5.06647998,0.52803 -2.47238,0.0845 -4.8389296,0.23656 -5.2589796,0.33782 l -0.76374,0.1841 0.63145,0.50368 c 1.7003896,1.35639 1.4781796,1.32951 4.8180796,0.5828 1.69857,-0.37976 3.37789,-0.6178 3.73182,-0.52895 0.934,0.23442 1.47425,0.88198 1.47425,1.76709 0,0.60257 0.11956,0.77486 0.53766998,0.77486 0.96695,0 2.36512002,0.75211 2.67905002,1.44111 0.16912,0.37118 0.81874,0.97449 1.44361,1.34067 2.07079,1.21356 2.53008,2.66758 1.22665,3.88326 -1.52712,1.42433 -2.44189,1.57851 -4.23005002,0.71287 -1.01204,-0.48993 -1.29426,-0.52184 -2.26634998,-0.25638 -1.32602,0.36208 -2.47559,0.0909 -3.7567,-0.88625 -0.76972,-0.58711 -0.91152,-0.61785 -1.20706,-0.26175 -0.20132,0.24257 -0.65873,0.37174 -1.14696,0.32385 -0.65199,-0.0639 -1.12591,-0.47125 -2.4037896,-2.06582 -0.87543,-1.09235 -1.78152,-2.27803 -2.01353,-2.63482 -0.39302,-0.60436 -0.60544,-0.65606 -3.10886,-0.75661 l -2.6869,-0.10792 v 5.05786 5.05785 h -34.39581 -34.39583 z m 76.70401,315.85474 c 0.5184296,-0.64071 0.5678496,-0.8287 0.2667796,-1.01475 -0.3659696,-0.2262 -1.5448996,-0.0698 -1.8606896,0.24677 -0.0901,0.0904 -0.10763,0.60413 -0.0389,1.14171 0.10658,0.83383 0.18896,0.93593 0.56073,0.69506 0.23969,-0.15531 0.72214,-0.63627 1.0721,-1.06879 z m 9.0452796,-4.20968 0.52874998,-0.74258 -0.97028998,-0.40539 c -1.59064,-0.66461 -1.71568,-0.50321 -1.11106,1.43409 0.35556,1.13925 0.56514,1.10064 1.5526,-0.28612 z m -7.43263,-1.11281 c 0,-0.51041 -0.0278,-0.5067 -0.66146,0.0886 -0.3638,0.34177 -0.66145,0.71716 -0.66145,0.83421 0,0.11702 0.29765,0.0771 0.66145,-0.0886 0.38681,-0.17624 0.66146,-0.52261 0.66146,-0.83418 z m -3.3956296,-1.21655 c 0.77619,-0.86334 1.75434,-2.20279 2.1736496,-2.97657 l 0.76239,-1.40684 -1.7324096,1.69019 c -1.63867,1.59872 -3.43471,4.26294 -2.87379,4.26294 0.14239,0 0.89396,-0.70639 1.67016,-1.56972 z m 19.5352196,-1.23063 c 0,-0.0605 -0.53997,-0.11007 -1.19994,-0.11007 -1.10291,0 -1.17786,0.0412 -0.92699,0.51001 0.15012,0.28049 0.19003,0.72607 0.0887,0.99018 -0.12958,0.33766 0.14556,0.21897 0.92699,-0.39995 0.61119,-0.48405 1.11126,-0.92964 1.11126,-0.99017 z m -9.15644,-1.32234 c 0.31905,-0.83142 0.17818,-2.75648 -0.20171,-2.75648 -0.43779,0 -3.07727,2.06179 -3.07727,2.40377 0,0.13313 0.38695,0.25042 0.8599,0.26066 0.47294,0.0103 1.09802,0.12092 1.38906,0.24599 0.75906,0.32618 0.85106,0.31242 1.03002,-0.15394 z m 3.07102,-0.9044 c 0,-0.14552 -0.11906,-0.26458 -0.26458,-0.26458 -0.14552,0 -0.26459002,0.11906 -0.26459002,0.26458 0,0.14552 0.11907002,0.26459 0.26459002,0.26459 0.14552,0 0.26458,-0.11907 0.26458,-0.26459 z m 3.43958,-3.43958 c 0,-1.01865 -0.0383,-1.85208 -0.0852,-1.85208 -0.0468,0 -0.64215,0.18978 -1.32291,0.42174 -1.51877,0.5175 -1.5665,0.93909 -0.25802,2.27907 1.42955,1.46399 1.66609,1.3435 1.66609,-0.84873 z m 7.2490504,-3.50573 c 1.8446,-3.86736 1.84811,-3.85289 -0.55091,-2.27671 -1.13736,0.74726 -2.0815704,1.37173 -2.0982304,1.38774 -0.0167,0.0159 -0.11036,0.65638 -0.2082,1.42306 -0.16416,1.28624 -0.13115,1.41274 0.42717,1.63687 1.0950304,0.43958 1.2518704,0.29948 2.4301704,-2.17096 z m 8.2311,-4.75284 c 0.80373,-2.54426 0.81187,-2.68954 0.13027,-2.32476 -0.38246,0.20468 -0.52988,0.5557 -0.53175,1.26608 -0.001,0.54057 -0.29908,1.61978 -0.66146,2.39821 -0.79698,1.71199 -0.81102,1.84708 -0.12769,1.22867 0.29216,-0.26439 0.82794,-1.42009 1.19063,-2.5682 z m -35.14054,1.71516 c -0.0671,-0.25741 -0.12638,-0.11086 -0.13178,0.3257 -0.005,0.43656 0.0495,0.6472 0.12197,0.46805 0.0725,-0.17912 0.0769,-0.53631 0.01,-0.79375 z m -3.09782,-92.4769 c 0.002,-0.25466 -0.11502,-0.46302 -0.26054,-0.46302 -0.14552,0 -0.26276,0.38695 -0.26053,0.85989 0.003,0.65252 0.0659,0.7642 0.26053,0.46303 0.14107,-0.21829 0.25831,-0.60524 0.26054,-0.8599 z m 7.9823896,-20.87933 c 0.38627,-0.26718 0.96456,-0.48577 1.28511,-0.48577 0.51149,0 4.90818,-2.62213 9.25581998,-5.52009 1.45350002,-0.96882 3.17656002,-3.16825 3.17656002,-4.05476 0,-0.59957 -1.48601,-2.78188 -2.22319,-3.26488 -1.33644002,-0.87569 -3.61132,-1.42822 -5.79328,-1.40711 -3.25595,0.0315 -4.23002,-0.5021 -5.8688296,-3.21503 -2.9443,-4.87407 -2.17581,-10.20154 2.6601696,-18.44125 1.18572,-2.02025 2.27327,-3.36494 4.91852,-6.0815 1.86789998,-1.91828 3.39618998,-3.64643 3.39618998,-3.84037 0,-0.61558 1.09112002,-2.41885 2.23143002,-3.68782 1.40651,-1.56522 2.51879,-3.67964 3.58957,-6.82371 0.69078,-2.02832 0.8298,-2.80037 0.74474,-4.13615 -0.20349,-3.19582 -3.15023,-7.73644 -6.58713002,-10.15008 -1.74715,-1.22697 -5.40100998,-2.88887 -5.69815998,-2.59172 -0.0731,0.0731 0.0598,2.49716 0.29535,5.38673 0.23557,2.88957 0.49812,9.2729 0.58344,14.18516 l 0.15512,8.93138 -1.5005,1.52966 c -3.34176,3.40675 -6.8096796,8.83984 -8.1411196,12.75445 -0.81426,2.39406 -0.85565,2.70849 -0.87059,6.61459 l -0.0157,4.10104 0.97861,2.0016 c 0.90857,1.85838 2.60503,3.80944 4.0109896,4.61298 0.43467,0.24842 0.41445,0.48281 -0.33087,3.83646 -0.8015796,3.60677 -1.6160196,8.59885 -1.6160196,9.90531 0,0.75203 0.056,0.74549 1.3637596,-0.15912 z M -12.775823,124.891 l 0.45884,-1.05833 -0.79739,0.91605 c -0.43858,0.50382 -0.7974,1.21493 -0.7974,1.58022 0,0.63505 0.0148,0.6413 0.33855,0.14229 0.18621,-0.28704 0.54504,-0.99814 0.7974,-1.58023 z m -5.54888,-9.78958 c 0.10304,-0.89215 0.0796,-1.10753 -0.072,-0.66146 -0.22466,0.66104 -0.36511,2.30297 -0.17916,2.09462 0.0541,-0.0606 0.16715,-0.70555 0.25118,-1.43316 z m 0.0107,-10.58333 c 0.0838,-0.21828 0.037,-0.39688 -0.10398,-0.39688 -0.14096,0 -0.25629,0.1786 -0.25629,0.39688 0,0.21828 0.0468,0.39687 0.10399,0.39687 0.0572,0 0.17251,-0.17859 0.25628,-0.39687 z m 3.60849,0.13229 c 0,-0.14552 -0.0525,-0.26458 -0.11668,-0.26458 -0.0642,0 -0.19026,0.11906 -0.2802,0.26458 -0.0899,0.14552 -0.0374,0.26458 0.11668,0.26458 0.15411,0 0.2802,-0.11906 0.2802,-0.26458 z m -3.87015,-199.561976 c -0.23604,-1.54099 -0.36319,-1.57959 -0.36319,-0.11024 0,0.6791 0.12047,1.23472 0.26771,1.23472 0.16559,0 0.20201,-0.42897 0.0955,-1.12448 z M 167.5924,528.48284 v -5.32172 l -1.25677,0.19685 c -2.93006,0.45895 -8.56413,0.78084 -10.64948,0.60844 -5.80223,-0.47969 -12.11164,-4.02043 -13.89983,-7.80034 -2.17343,-4.59426 -4.30483,-22.18418 -3.31175,-27.33109 0.3911,-2.02703 2.04844,-2.76138 3.33298,-1.47685 0.60522,0.60523 0.64951,0.83489 0.65065,3.37343 0.002,3.49624 0.82879,9.11678 1.67119,11.35484 1.60055,4.25227 4.19875,8.25955 7.45611,11.49982 2.71191,2.69766 4.171,3.3479 7.85274,3.49959 l 2.88999,0.11909 -3.54701,-3.54028 c -4.22424,-4.21622 -5.1443,-5.78483 -6.03386,-10.28716 -0.48093,-2.43414 -0.52229,-3.23678 -0.33407,-6.48229 0.11816,-2.0373 0.20042,-5.44322 0.18281,-7.56873 -0.0383,-4.62415 -0.22313,-5.12215 -2.41275,-6.50102 -3.65235,-2.3 -5.93771,-3.92092 -6.54391,-4.64132 -0.86918,-1.03296 -0.85222,-2.12842 0.0438,-2.83327 1.20015,-0.94403 2.32225,-0.72771 6.08321,1.17287 4.25575,2.15062 5.65445,3.20308 7.56981,5.69593 3.93144,5.11683 4.30563,7.96274 2.19336,16.68145 -1.01925,4.20711 -0.97073,4.5625 0.85283,6.24636 0.83675,0.77266 1.66343,1.40486 1.83708,1.40491 0.17365,5e-5 0.49834,0.26083 0.72152,0.57947 0.22319,0.31863 0.49073,0.4944 0.59454,0.3906 0.10381,-0.10382 0.27056,-1.52556 0.37055,-3.15944 0.23382,-3.82051 0.51937,-5.13951 2.11194,-9.75511 l 1.30969,-3.79577 v -9.27245 -9.27243 l -1.25678,-2.1754 c -0.69122,-1.19648 -1.79255,-2.90727 -2.44739,-3.80175 -1.88446,-2.5741 -8.30528,-9.22851 -9.8446,-10.2027 -2.61376,-1.65423 -8.53409,-4.37399 -10.90027,-5.00753 -4.43978,-1.18872 -5.68157,-2.23364 -8.06151,-6.78347 -1.58277,-3.0258 -1.72509,-4.09027 -0.65898,-4.92887 0.38342,-0.3016 0.82275,-0.54838 0.97628,-0.54838 0.15353,0 1.08598,0.4875 2.07213,1.08334 0.98614,0.59584 3.11144,1.54776 4.72289,2.11537 3.40572,1.19965 4.04849,1.51053 6.28869,3.04176 0.91314,0.62412 2.34189,1.38808 3.175,1.69762 3.37905,1.25555 9.61938,5.04518 11.12566,6.7564 0.57682,0.65529 2.09419,3.21307 3.37193,5.68391 1.95943,3.78904 2.62995,4.85529 2.78354,4.42629 0.013,-0.0364 0.13362,-5.00724 0.26799,-11.04635 0.26835,-12.06085 0.47728,-15.7412 1.16408,-20.50521 0.37252,-2.58403 0.42964,-4.28308 0.30688,-9.12813 -0.21193,-8.36474 -1.3077,-16.15744 -2.96706,-21.10057 -0.35621,-1.06111 -0.64765,-2.3881 -0.64765,-2.94881 0,-1.22502 -0.34826,-2.25062 -2.13394,-6.28443 -0.86413,-1.95205 -1.7414,-4.58465 -2.40153,-7.20678 -0.57203,-2.27221 -1.27144,-4.96472 -1.55424,-5.98336 -2.20424,-7.93959 -4.7491,-25.01514 -4.75595,-31.9115 -0.001,-1.25302 -0.0776,-2.82816 -0.16978,-3.50036 -0.15331,-1.11853 -0.23744,-1.23278 -0.99218,-1.34734 -6.58969,-1.00007 -8.13709,-1.41454 -9.08027,-2.43202 -0.32047,-0.34571 -0.7462,-0.62857 -0.94607,-0.62857 -0.19986,0 -0.63137,-0.28525 -0.9589,-0.63392 -0.83141,-0.88498 -0.66263,-1.96604 0.4205,-2.6934 1.36529,-0.91684 6.76382,-2.31609 9.40934,-2.43877 1.27331,-0.0591 2.3151,-0.22167 2.3151,-0.36137 0,-0.15941 -4.65451,-0.23392 -12.50156,-0.20011 -8.41708,0.0363 -13.26436,-0.0483 -14.83628,-0.25873 -1.28409,-0.17196 -5.5244,-0.3614 -9.42291,-0.42098 -3.89851,-0.0596 -7.43179,-0.18825 -7.85174,-0.28588 -0.88259,-0.20524 -2.48525,-1.78573 -2.47929,-2.44502 0.009,-1.03926 0.85205,-1.4606 4.56001,-2.28012 1.82453,-0.40326 2.05052,-0.51962 2.05052,-1.05561 0,-1.05789 0.81593,-1.48535 3.34259,-1.75115 1.29028,-0.13573 2.91632,-0.24892 3.61344,-0.25148 0.89407,-0.003 1.5047,-0.18011 2.07268,-0.60003 0.87033,-0.64346 -0.0958,-0.58012 16.73536,-1.09712 2.58233,-0.0793 5.844,0.0167 8.46667,0.24927 2.34637,0.20807 5.05238,0.37978 6.01334,0.38158 l 1.7472,0.003 0.72168,-2.97656 c 0.39692,-1.63711 0.8257,-4.28625 0.95284,-5.88698 0.12714,-1.60073 0.41132,-4.04151 0.6315,-5.42396 0.22018,-1.38244 0.57853,-5.07338 0.79633,-8.20208 0.4491,-6.45126 1.52057,-13.30007 3.05144,-19.50487 2.20538,-8.93866 2.14261,-8.0614 2.12295,-29.67006 l -0.0175,-19.21986 0.92555,-3.57187 c 0.95415,-3.68229 2.28993,-11.35465 2.78691,-16.0073 0.62798,-5.87909 0.63913,-13.11478 0.03,-19.44687 -0.64602,-6.71497 -1.36595,-12.00989 -2.14949,-15.80891 -0.45134,-2.18831 -1.05099,-7.40698 -1.7101,-14.88276 -0.42172,-4.78319 -2.05801,-18.15322 -2.246,-18.35197 -0.27093,-0.28644 -1.51049,1.55829 -1.85555,2.76145 -0.4231,1.47524 -0.30863,2.52553 0.36327,3.33325 1.54367,1.85568 1.61984,2.72785 0.43235,4.95041 -0.87641,1.64033 -0.89902,1.75305 -0.58616,2.9228 0.17898,0.66915 0.32541,1.78548 0.32541,2.48068 0,1.14406 -0.10673,1.36488 -1.12448,2.32645 -0.61846,0.58433 -1.70188,1.51977 -2.40759,2.07875 -0.70572,0.55902 -2.16361,2.12236 -3.23978,3.47414 -2.15956,2.71267 -2.65437,3.17426 -2.35085,2.19311 0.63295,-2.04603 3.24881,-5.31993 5.7619,-7.21133 2.67961,-2.01676 2.66874,-1.99977 2.43689,-3.8024 -0.40166,-3.12301 -0.31601,-4.08811 0.46332,-5.22039 0.97065,-1.41028 0.92464,-2.22946 -0.20087,-3.57661 -0.82995,-0.99338 -0.92604,-1.27146 -0.92604,-2.67968 0,-1.75448 0.76612,-3.59669 1.95818,-4.70863 0.37821,-0.35279 0.68765,-0.89601 0.68765,-1.20713 0,-0.66982 -1.489,-5.17023 -1.82019,-5.50143 -0.1294,-0.12938 -0.67177,0.31059 -1.24459,1.00965 -0.9662,1.17911 -0.99135,1.25645 -0.52044,1.60081 2.662,1.94648 2.62007,2.54685 -0.25124,3.59706 -1.16416,0.42582 -2.29526,0.95406 -2.51354,1.17385 -0.35298,0.35544 -0.33424,0.44895 0.16946,0.84558 0.31149,0.24527 0.93764,0.6494 1.39146,0.89805 1.02516,0.56169 1.33261,1.34789 1.52368,3.89631 0.12243,1.63301 0.0443,2.31291 -0.42415,3.69207 -1.14757,3.37839 -3.36406,7.23559 -4.63721,8.0698 -0.60191,0.39438 -0.47265,0.0269 1.07929,-3.06862 2.5708,-5.12762 3.01414,-6.43829 3.01414,-8.9109 0,-2.37559 -0.48005,-3.30015 -1.87226,-3.60592 -0.48219,-0.10592 -0.92208,-0.42892 -1.09198,-0.8018 -0.26735,-0.58676 -0.32878,-0.60155 -1.01803,-0.24513 -1.00685,0.52067 -1.83947,1.64475 -1.83405,2.4761 0.002,0.38055 0.35764,1.28722 0.78924,2.01483 1.18022,1.98966 1.10964,3.49541 -0.25501,5.44086 -0.57681,0.8223 -1.17492,2.05809 -1.32913,2.74619 -0.557,2.48545 -0.84384,2.83681 -7.24905,8.87968 l -1.82174,1.71868 0.63111,-1.15966 c 0.34711,-0.63781 2.08075,-2.67799 3.85254,-4.53372 2.57304,-2.69494 3.28464,-3.60651 3.53543,-4.52887 0.53443,-1.96557 0.82307,-2.58543 1.74223,-3.7415 1.20583,-1.51665 1.22587,-2.93465 0.067,-4.74059 -0.71867,-1.11996 -0.80999,-1.46125 -0.69927,-2.61345 l 0.12734,-1.32525 -0.60874,0.57187 c -0.91415,0.85879 -1.35863,2.00295 -1.67902,4.32208 -0.15916,1.15205 -0.55571,2.6357 -0.88122,3.29702 -0.74494,1.51345 -4.57705,5.32903 -8.75972,8.72194 -3.24129,2.6293 -4.33205,3.37256 -4.58215,3.12245 -0.19213,-0.19211 1.85109,-2.14177 5.87086,-5.60199 1.89177,-1.62843 4.05152,-3.61133 4.79943,-4.40643 1.22746,-1.3049 2.47662,-3.25757 2.47662,-3.87143 0,-0.29525 -3.14623,-0.65903 -5.95313,-0.68829 l -2.11667,-0.022 -0.0211,3.28578 -0.0211,3.28576 -1.03718,0.87592 c -1.21702,1.02781 -4.0799,2.61478 -4.0799,2.26161 0,-0.13412 0.89297,-1.08678 1.98438,-2.11701 l 1.98437,-1.87314 v -2.13186 c 0,-1.17253 -0.10061,-2.13185 -0.22357,-2.13185 -0.12297,0 -0.44212,0.24148 -0.70922,0.53663 -0.58855,0.65034 -7.46936,5.97879 -9.38736,7.26953 -0.75608,0.50879 -1.69015,0.91847 -2.07571,0.91038 l -0.70101,-0.0148 0.77385,-0.58063 c 4.27878,-3.21029 11.50661,-9.22999 12.99136,-10.81984 1.35451,-1.45039 2.2737,-2.78913 3.38921,-4.93612 1.82915,-3.52047 2.571,-4.455 4.05907,-5.11323 l 1.12265,-0.4966 0.0767,-2.17511 c 0.0606,-1.71717 -0.0326,-2.41329 -0.44233,-3.30639 -0.33636,-0.73311 -0.64664,-1.08234 -0.88153,-0.99219 -0.19937,0.0765 -0.48819,0.13909 -0.64182,0.13909 -0.18817,0 -0.22053,0.72469 -0.0991,2.2207 0.17446,2.15019 0.15931,2.23713 -0.4774,2.73796 -0.40327,0.31721 -1.81467,0.74303 -3.64953,1.10104 -4.30627,0.84024 -4.55426,0.9476 -5.94285,2.57297 -0.68159,0.79782 -1.4871,1.58808 -1.79001,1.75611 -0.30512,0.16929 -2.49778,0.39281 -4.91638,0.50118 -3.89825,0.17465 -5.71404,0.30337 -12.56771,0.89082 -1.7137,0.14687 -1.81346,0.12767 -1.33513,-0.25722 1.12399,-0.90443 4.26308,-1.32128 12.86316,-1.7081 2.73863,-0.12319 5.16426,-0.35523 5.48012,-0.52427 0.31167,-0.16682 0.93461,-0.83804 1.3843,-1.49164 1.05865,-1.53871 2.10858,-2.0346 5.81693,-2.74741 4.42487,-0.8505 4.00247,-0.53851 3.91335,-2.89057 l -0.0769,-2.02928 -1.4552,-0.4953 c -0.80037,-0.27241 -2.31842,-0.55597 -3.37344,-0.6301 l -1.91823,-0.13481 v 2.92632 c 0,2.30748 -0.0879,3.01421 -0.41578,3.34208 -0.53382,0.53383 -2.20753,0.5361 -4.49278,0.006 -0.97152,-0.22532 -2.37789,-0.37414 -3.12528,-0.33073 -1.31032,0.0761 -1.3781,0.11896 -1.89701,1.19915 -0.29598,0.61613 -0.67128,1.25336 -0.83401,1.4161 -0.367,0.36701 -10.33988,-0.11959 -10.74453,-0.52424 -0.66037,-0.66038 4.23602,-0.93004 8.18604,-0.45083 l 1.89019,0.22932 0.53232,-1.20338 c 0.29277,-0.66186 0.77381,-1.33263 1.06897,-1.49061 0.74302,-0.39764 2.73823,-0.35147 4.93698,0.11427 1.01859,0.21574 2.29851,0.39227 2.84427,0.39227 h 0.99229 v -3.03659 c 0,-2.9472 0.0195,-3.04938 0.66153,-3.47006 0.7742,-0.50729 2.52549,-0.36979 5.26366,0.41325 l 1.68735,0.48255 0.15956,-0.96489 c 0.2579,-1.55945 0.28039,-1.53614 -1.36718,-1.41695 -1.36701,0.0989 -1.74528,0.003 -3.50142,-0.89252 -1.26594,-0.64516 -2.45006,-1.04329 -3.31676,-1.11516 l -1.34791,-0.11178 -1.23446,1.98058 c -0.84152,1.35017 -1.48941,2.08622 -2.03546,2.31241 -0.79109,0.32766 -3.35583,0.27741 -8.08952,-0.15854 l -1.87581,-0.17275 -1.08,1.09085 c -1.06775,1.07847 -1.10177,1.09086 -2.99836,1.09086 -1.0551,0 -2.88014,-0.17037 -4.05565,-0.37857 -1.1755,-0.20823 -2.70283,-0.45363 -3.39405,-0.54539 -0.69123,-0.0917 -1.25677,-0.26738 -1.25677,-0.39034 0,-0.46648 2.56133,-0.55065 4.7625,-0.1565 1.23692,0.22149 2.96072,0.40489 3.83066,0.40759 1.51756,0.005 1.62208,-0.0393 2.57706,-1.08402 l 0.99534,-1.08889 4.72988,0.19187 c 2.60143,0.10552 4.97694,0.11346 5.27891,0.0177 0.47993,-0.15232 1.90273,-2.24499 1.90273,-2.79856 0,-0.11127 -0.38695,-0.25979 -0.8599,-0.33003 -0.47294,-0.0703 -1.54153,-0.38093 -2.37464,-0.69041 -0.83311,-0.30947 -1.9642,-0.56236 -2.51354,-0.56197 -0.88321,5.3e-4 -1.06004,0.11546 -1.52796,0.99219 -0.72357,1.35572 -1.98995,1.48847 -3.78028,0.39627 -1.71932,-1.04899 -3.33623,-1.65386 -4.42075,-1.65386 -0.71308,0 -1.1049,0.20971 -1.78058,0.95303 -0.47647,0.52417 -1.40209,1.26831 -2.05693,1.65364 -1.02645,0.60402 -1.4898,0.70062 -3.36021,0.70062 -2.79605,0 -3.45074,-0.48358 -1.23214,-0.91011 3.22464,-0.61998 3.78823,-0.86 5.40361,-2.30138 1.46743,-1.30936 1.69078,-1.41872 2.89755,-1.41872 1.44682,0 2.94042,0.51081 4.78711,1.63719 1.63267,0.99583 2.10751,0.95285 2.74887,-0.24884 0.49516,-0.92776 0.61736,-0.99657 1.90154,-1.07087 0.95159,-0.055 1.97176,0.12748 3.32719,0.59532 2.9676,1.02427 3.10564,0.98631 3.10564,-0.85393 0,-3.09254 1.45347,-3.52333 4.85327,-1.43844 1.20411,0.73841 1.7627,0.6119 1.75759,-0.39806 -0.003,-0.59181 -0.4707,-1.15039 -2.38848,-2.85258 -2.18025,-1.93516 -2.48055,-2.11666 -3.502,-2.11666 -1.0554,0 -1.16783,-0.0769 -2.03079,-1.38907 -1.3058,-1.98551 -1.89764,-1.92585 -3.89866,0.39302 -4.47278,5.18325 -5.35876,5.49365 -8.28468,2.90246 -1.4701,-1.30192 -3.40963,-2.2183 -5.18444,-2.44953 -1.31875,-0.17181 -1.37705,-0.1498 -2.68785,1.01437 -1.43587,1.27526 -2.8133,1.83751 -5.69649,2.32525 -1.80535,0.3054 -4.1583,0.14673 -4.1583,-0.28042 0,-0.12628 0.68461,-0.36307 1.52135,-0.52619 5.63113,-1.09778 6.05235,-1.24717 7.64141,-2.71018 1.2028,-1.10737 1.26806,-1.13137 3.02422,-1.11207 2.15671,0.0237 4.33511,0.97955 6.55389,2.87575 0.77587,0.66306 1.58464,1.20556 1.79728,1.20556 0.49641,0 2.50749,-1.88607 4.20039,-3.9393 0.7276,-0.88248 1.73964,-1.81566 2.24896,-2.07374 0.50932,-0.25809 0.96755,-0.49091 1.01828,-0.51739 0.38499,-0.20094 -3.21723,-4.61398 -3.82529,-4.68632 -0.12964,-0.0154 -0.29523,1.10306 -0.36799,2.4855 -0.11893,2.25973 -0.18573,2.52116 -0.66146,2.58898 -0.36654,0.0522 -0.96213,-0.41675 -1.93795,-1.52604 -1.60547,-1.82506 -2.94708,-2.61154 -4.83657,-2.83532 l -1.31437,-0.15567 -1.38965,1.49319 c -1.22318,1.31432 -1.51144,1.4932 -2.4062,1.4932 -0.96269,0 -4.65172,-1.69831 -4.65172,-2.1415 0,-0.0979 0.29975,-0.23537 0.66611,-0.3054 0.44256,-0.0846 1.06723,0.12704 1.86127,0.63062 1.83467,1.16351 2.7063,1.04226 4.06154,-0.56497 l 1.1155,-1.32292 h 1.71458 c 2.11592,0 3.41121,0.59522 5.30223,2.43651 l 1.35977,1.32401 0.0979,-2.15602 c 0.096,-2.11514 0.33177,-2.64702 1.17832,-2.65878 0.73673,-0.0102 2.1873,1.3847 3.68206,3.54085 1.16657,1.68274 1.92693,2.50332 2.66568,2.87681 0.56847,0.28739 1.52986,0.92461 2.13644,1.41603 0.62612,0.50727 1.40269,0.89351 1.79647,0.89351 1.04106,0 2.50639,0.85022 4.06042,2.35596 2.01336,1.9508 3.81192,1.79904 1.93651,-0.1634 -0.41857,-0.43799 -1.01364,-1.4715 -1.32238,-2.29669 -0.86535,-2.31285 -1.20358,-2.67949 -4.90793,-5.32022 -1.90284,-1.35648 -4.17408,-3.2083 -5.04721,-4.11516 -2.20199,-2.28707 -4.17343,-2.97485 -5.62092,-1.96099 -0.31861,0.22317 -0.97018,0.38342 -1.44794,0.35613 -0.47775,-0.0273 -1.68485,0.20684 -2.68245,0.52029 -1.99374,0.62645 -2.86808,0.70247 -3.59641,0.31268 -0.67876,-0.36326 -0.80756,-0.83324 -1.08084,-3.94363 -0.133,-1.51388 -0.29824,-2.808924 -0.36718,-2.877866 -0.0689,-0.06894 -0.44533,0.126349 -0.83642,0.433982 -1.02597,0.807024 -3.34633,0.771164 -5.04974,-0.07806 -0.70318,-0.350562 -2.4989,-1.014651 -3.99049,-1.475753 -1.49159,-0.461103 -2.71198,-0.902174 -2.71198,-0.980157 0,-0.170704 2.02705,0.08951 3.78855,0.486341 1.19046,0.26819 1.40062,0.22933 3.16964,-0.586063 1.51131,-0.696608 2.22107,-0.870222 3.50807,-0.858115 1.52789,0.01437 2.15337,0.152548 4.81052,1.062681 1.47753,0.506089 3.26234,2.274281 4.04606,4.0084 0.52209,1.15519 0.72297,1.36952 1.17087,1.24919 0.29737,-0.0799 0.80283,-0.14687 1.12327,-0.14886 0.39651,-0.002 0.85574,-0.40504 1.43774,-1.26038 1.04417,-1.534574 1.19598,-1.644493 2.27837,-1.649597 1.27597,-0.006 2.73006,1.456497 4.08732,4.110997 0.62643,1.22515 1.30237,2.2906 1.50208,2.36767 0.21104,0.0814 0.81273,-0.36025 1.43669,-1.05463 0.77855,-0.86643 1.27343,-1.19475 1.8008,-1.19475 1.19729,0 1.74926,0.81613 3.81183,5.63615 l 0.99655,2.32886 0.70478,-0.67521 c 1.256,-1.20333 2.49667,-0.7338 3.54457,1.34144 0.22941,0.45432 0.78889,1.76401 1.24329,2.91042 0.4544,1.14641 0.99995,2.27781 1.21233,2.51423 0.33454,0.3724 1.44115,0.64543 3.40688,0.84054 0.41766,0.0415 0.5467,-0.12961 0.61241,-0.81185 0.0619,-0.64266 -0.31137,-1.62047 -1.45521,-3.81209 -1.65948,-3.1796 -2.77889,-4.5989 -3.8016,-4.82004 -0.356,-0.077 -1.33307,-0.27239 -2.17127,-0.43426 -1.88978,-0.36495 -2.83778,-1.13321 -3.93231,-3.18676 -1.3914,-2.61053 -1.79983,-2.88977 -4.22675,-2.88977 -2.54381,0 -2.79298,-0.21209 -3.92521,-3.341172 -1.09578,-3.02832 -1.98172,-4.701966 -2.85327,-5.39016 -0.77667,-0.61327 -1.55028,-0.623554 -7.79368,-0.103603 -1.65586,0.137901 -1.7918,0.107106 -2.18652,-0.495313 -0.23149,-0.353298 -0.72248,-0.779772 -1.09109,-0.947719 -0.96554,-0.439933 -4.81003,-0.375542 -6.91273,0.115779 -2.91119,0.680236 -4.24361,0.440364 -6.56779,-1.182378 -1.57385,-1.09886 -2.43338,-1.490361 -4.24281,-1.932527 -2.59734,-0.634704 -2.64785,-1.040903 -0.15186,-1.221447 2.01184,-0.145523 3.03888,0.210249 5.24053,1.81533 2.02306,1.474891 2.96575,1.626884 5.63937,0.909254 1.69378,-0.454631 5.24726,-0.516469 6.68796,-0.116382 0.54968,0.152646 1.41253,0.640263 1.91745,1.083588 l 0.91804,0.806048 2.04203,-0.454308 c 1.36948,-0.304681 2.72217,-0.414936 4.10712,-0.334762 l 2.06509,0.119547 -0.49478,-0.551865 c -0.27213,-0.303528 -0.86681,-1.104713 -1.32152,-1.780416 -0.51371,-0.763384 -1.14476,-1.339416 -1.66667,-1.521354 -0.46197,-0.161042 -2.32898,-0.292804 -4.14892,-0.292804 -3.16167,0 -3.34941,-0.03084 -4.21709,-0.692647 -0.49946,-0.380958 -1.31609,-1.330431 -1.81474,-2.109944 l -0.90663,-1.417296 -1.78211,0.02222 c -1.579,0.01969 -2.08366,0.171183 -4.42794,1.329132 -2.84348,1.404527 -4.69581,1.836806 -6.61967,1.544835 -1.81632,-0.275648 -2.04976,-0.714996 -0.48986,-0.921961 2.7012,-0.358392 4.02395,-0.708427 5.67151,-1.500836 l 1.7026,-0.81887 -0.92604,-0.367659 c -0.50932,-0.202213 -1.40229,-0.602713 -1.98438,-0.889998 l -1.05833,-0.522337 1.32292,0.148158 c 0.7276,0.08149 1.92311,0.272415 2.65669,0.424283 1.18109,0.244515 1.43855,0.212257 2.24896,-0.281781 1.32973,-0.810628 3.06177,-0.756962 3.98061,0.123336 0.67333,0.645099 0.75534,0.661265 1.46968,0.289724 0.41611,-0.216427 1.0452,-0.702472 1.39799,-1.080101 0.47227,-0.505526 0.90595,-0.686596 1.64444,-0.686596 1.38768,0 2.45222,1.005644 4.01862,3.79627 0.69912,1.245527 1.49264,2.334901 1.76338,2.420829 0.27073,0.08593 0.93224,-0.02761 1.47002,-0.252309 0.53777,-0.224697 1.52422,-0.40854 2.19209,-0.40854 1.13526,0 1.3049,0.09732 2.60552,1.494856 l 1.3912,1.494856 2.28197,-0.175406 c 4.12237,-0.31687 4.83747,0.20877 5.07999,3.734131 l 0.13197,1.918229 h 0.90388 c 0.94205,0 2.02097,0.866376 2.34318,1.881582 0.2008,0.632648 0.56582,0.626565 2.82793,-0.04712 1.40958,-0.41979 1.80028,-0.639897 1.68217,-0.947679 -0.0846,-0.220493 -0.15383,-0.789771 -0.15383,-1.26506 0,-0.811999 -0.12004,-0.923491 -1.98842,-1.846895 -1.73851,-0.859219 -2.08589,-1.155248 -2.76394,-2.355342 -0.42652,-0.754936 -0.87119,-1.515327 -0.98814,-1.689761 -0.14076,-0.209953 -1.50935,-0.366583 -4.04909,-0.463405 -3.23115,-0.123179 -3.89211,-0.219247 -4.18919,-0.608891 -0.47708,-0.625718 -0.24437,-2.489374 0.60478,-4.843401 0.3707,-1.027663 0.674,-2.099511 0.674,-2.38188 0,-0.666372 -0.72997,-0.662268 -3.82306,0.02148 -2.45659,0.54306 -5.8245,0.689015 -6.46992,0.280387 -0.28886,-0.182888 -0.33318,-0.642975 -0.19998,-2.076188 l 0.17113,-1.841233 -3.90107,-0.178739 c -2.14558,-0.0983 -6.40138,-0.246578 -9.45731,-0.329507 -4.44616,-0.120652 -5.71484,-0.23759 -6.35,-0.585293 -0.77015,-0.421595 -0.66392,-0.439295 3.57187,-0.595151 2.4011,-0.08835 4.84188,-0.122375 5.42396,-0.07561 0.58208,0.04676 3.26099,0.220793 5.95313,0.386731 2.69213,0.165939 5.11168,0.417081 5.37678,0.558094 0.42118,0.224038 0.45902,0.470929 0.29991,1.956715 l -0.18219,1.700513 h 1.44919 c 1.20869,0 6.75871,-0.940731 7.02976,-1.191546 0.0456,-0.04221 -0.87183,-0.3947 -2.03875,-0.78332 -2.50529,-0.834337 -3.22832,-1.531601 -4.77209,-4.602001 -0.56734,-1.128382 -1.23282,-2.218663 -1.47885,-2.422848 -0.24603,-0.204186 -0.55104,-0.64403 -0.67779,-0.977431 -0.35262,-0.927455 -1.68009,-0.808794 -3.22287,0.288086 -2.29968,1.635009 -3.76838,2.128478 -6.28779,2.112624 -1.40201,-0.0088 -2.50341,-0.152554 -2.91041,-0.379802 -0.60857,-0.339791 -0.48667,-0.379507 1.72645,-0.562517 3.25622,-0.269266 4.34483,-0.613082 6.41963,-2.027513 1.52287,-1.038166 1.96737,-1.213191 3.05217,-1.201811 l 1.2697,0.01331 -0.0791,-1.077933 -0.0791,-1.077921 -2.3622,-0.07713 c -1.72816,-0.05643 -3.00647,0.07701 -4.7625,0.497171 -1.58771,0.379883 -3.3408,0.585137 -5.17843,0.606301 -4.69446,0.05407 -5.0004,-0.652122 -0.50322,-1.161569 1.36272,-0.154371 3.65748,-0.525153 5.09945,-0.82396 1.91092,-0.395978 3.33554,-0.51894 5.25425,-0.453504 3.2724,0.111604 3.64327,0.41461 3.64327,2.976589 0,0.920885 0.13896,1.776518 0.3175,1.955065 0.2137,0.213701 1.41904,0.3175 3.68694,0.3175 4.76014,0 5.35732,0.307099 5.65955,2.910416 0.26403,2.274247 0.32248,2.38125 1.30078,2.38125 0.74452,0 1.59192,-0.222528 3.54189,-0.9301 0.24012,-0.08713 0.0995,-0.339551 -0.44401,-0.796862 -0.99245,-0.835088 -1.53392,-2.244005 -2.01356,-5.239355 -0.20575,-1.284859 -0.57132,-2.637118 -0.81238,-3.005022 -0.47144,-0.719513 -0.60905,-0.72441 -5.32786,-0.189645 -1.2524,0.141931 -1.40386,0.09899 -1.80375,-0.51132 -0.24011,-0.366446 -0.61564,-1.657194 -0.83452,-2.868332 -0.54007,-2.988369 -1.15148,-4.510366 -1.96969,-4.903216 -0.70633,-0.33913 -3.21019,-0.144442 -6.98943,0.543467 -2.02363,0.368348 -3.45121,0.290658 -2.672,-0.145412 1.13828,-0.637011 5.63615,-1.533369 7.69437,-1.533369 1.94575,0 2.25088,0.06903 2.87919,0.651322 0.87616,0.811993 1.1713,1.572456 1.64181,4.230203 0.71929,4.063024 0.85518,4.218173 3.02434,3.45285 1.29628,-0.457354 3.50504,-0.522063 4.24799,-0.12445 0.80071,0.428533 1.3314,1.730219 1.73983,4.267536 0.60142,3.736266 1.2367,4.832411 2.98418,5.149051 1.21001,0.219252 2.66027,0.945923 3.30034,1.653678 0.27411,0.303093 0.59476,0.491516 0.71256,0.418713 0.33467,-0.20684 2.36141,-3.978158 2.35688,-4.385643 -0.0101,-0.908111 -0.38119,-1.043874 -1.73268,-0.633902 -1.57777,0.478613 -3.33305,0.51794 -3.7666,0.08439 -0.4978,-0.497801 -0.37809,-2.936857 0.21167,-4.312709 0.29104,-0.678973 0.52916,-1.346634 0.52916,-1.483693 0,-0.457525 -1.25177,-0.748731 -2.13259,-0.496115 -1.29789,0.372232 -1.83616,-0.04868 -1.83616,-1.43582 0,-0.631428 0.16045,-1.609502 0.35655,-2.173501 0.19611,-0.563999 0.44052,-1.36888 0.54314,-1.788621 l 0.18658,-0.763167 -1.7999,0.168844 c -2.80801,0.263412 -4.84262,-0.72576 -4.84262,-2.354349 0,-1.721014 -0.77671,-2.096895 -5.15937,-2.496807 -1.89177,-0.172622 -4.57068,-0.54801 -5.95313,-0.834191 -1.38245,-0.286184 -3.45549,-0.687557 -4.60677,-0.891945 -1.16139,-0.206182 -2.28033,-0.564759 -2.51354,-0.805487 -0.38917,-0.401728 -0.11644,-0.422196 3.68073,-0.276225 2.25557,0.08671 4.85284,0.227089 5.77171,0.311954 1.07114,0.09893 2.53913,-0.0053 4.09073,-0.290443 3.08146,-0.566296 4.94657,-0.375764 6.02996,0.615989 0.73248,0.670531 0.93089,1.214525 1.69063,4.635354 0.15975,0.719291 0.21913,0.746512 1.28027,0.586902 3.21317,-0.483315 3.21811,-0.483172 3.7524,0.107209 0.40949,0.452485 0.53411,1.066959 0.62147,3.06452 l 0.10928,2.498551 h 0.97386 c 1.11549,0 1.60886,0.377158 1.60886,1.22991 0,0.3272 0.31022,0.928465 0.68939,1.336146 0.37916,0.40768 1.03572,1.425845 1.45902,2.262589 0.70466,1.392942 0.84391,1.521355 1.64975,1.521355 h 0.88012 l 0.17614,-5.857769 c 0.12622,-4.197477 0.0915,-5.959788 -0.12258,-6.217709 -0.39985,-0.481793 -1.57438,-0.454504 -2.87739,0.06686 -0.85413,0.341754 -1.14515,0.361659 -1.46056,0.0999 -0.49904,-0.414166 -0.50614,-2.284579 -0.02,-5.275175 0.56019,-3.446407 0.31903,-3.622929 -2.00722,-1.469226 -1.013,0.937853 -1.8016,1.455209 -2.21818,1.455209 -0.64627,0 -0.64638,-5.3e-4 -0.64638,-2.910417 0,-2.060258 -0.0912,-2.910417 -0.31228,-2.910417 -0.17176,0 -1.03496,0.466146 -1.91823,1.035878 -2.04296,1.317766 -3.61343,1.804919 -4.50664,1.397942 -0.52483,-0.239125 -0.68529,-0.560887 -0.83227,-1.668912 -0.19323,-1.456581 -0.82587,-2.352408 -1.66129,-2.352408 -0.27471,0 -1.28297,0.366644 -2.24058,0.814766 -2.5179,1.178266 -2.65661,1.09891 -2.81621,-1.61113 l -0.13229,-2.246344 -1.45207,-0.08216 c -1.46461,-0.08287 -2.16231,-0.463717 -2.7041,-1.476055 -0.24801,-0.463417 -0.20374,-0.458121 0.52837,0.06319 0.54293,0.386601 1.1944,0.568987 2.03239,0.568987 2.06907,0 2.25687,0.220929 2.25687,2.655141 0,1.515097 0.093,2.104408 0.33072,2.09686 0.18191,-0.0058 0.98558,-0.362934 1.78594,-0.793689 0.80037,-0.430755 1.82611,-0.78322 2.27942,-0.783251 1.16055,-8.5e-5 2.16412,0.875223 2.36405,2.061924 0.29175,1.731618 0.39059,1.906765 1.07604,1.906765 0.76503,0 1.82674,-0.515837 3.66664,-1.781472 1.03619,-0.712774 1.48571,-0.872805 2.10418,-0.749109 0.43257,0.08651 0.88277,0.304334 1.00045,0.484044 0.11767,0.179711 0.1393,1.457839 0.0481,2.840287 l -0.16591,2.513541 1.15573,-1.085374 c 2.1084,-1.980056 3.22053,-2.419961 3.93661,-1.557136 0.26777,0.322644 0.24389,0.950733 -0.12325,3.241146 -0.56386,3.517675 -0.49704,4.732916 0.25278,4.597381 1.97182,-0.356417 3.36726,-0.328975 3.81364,0.075 0.44612,0.403735 0.50436,0.314354 1.06086,-1.628164 0.32386,-1.130443 1.33904,-4.198474 2.25596,-6.817849 1.95475,-5.584143 2.4576,-7.157109 3.58866,-11.225713 0.46232,-1.662993 1.45433,-4.401431 2.20448,-6.085416 l 1.3639,-3.061788 0.0814,-6.614583 c 0.0448,-3.638021 -0.0441,-7.745677 -0.19742,-9.128125 C 163.7512,8.8116968 162.78647,4.1682598 161.7607,-0.12460519 159.10855,-11.223859 158.52963,-13.792985 157.16992,-20.497521 c -1.95532,-9.641327 -2.08633,-11.132606 -1.92929,-21.960412 0.16282,-11.22597 0.60264,-16.05158 2.29093,-25.13542 1.04557,-5.62569 2.52374,-14.22278 3.18445,-18.52083 0.30199,-1.96453 0.73003,-4.34578 0.9512,-5.29167 1.45709,-6.23149 1.45571,-6.20969 1.43173,-22.489577 -0.0123,-8.36745 0.0585,-16.79112 0.15736,-18.71927 l 0.17977,-3.50573 h 29.59484 29.59486 v 334.96249 334.9625 h -27.51666 -27.51667 z m -22.62421,-80.93625 c -0.32849,-0.53149 -4.84375,-2.51436 -5.11283,-2.24528 -0.40974,0.40973 1.54922,1.55366 3.65996,2.13717 1.52812,0.42246 1.65288,0.43175 1.45287,0.10811 z M 156.2865,328.8435 c -0.17913,-0.0725 -0.53632,-0.0769 -0.79375,-0.01 -0.25744,0.0671 -0.11087,0.12639 0.32569,0.13179 0.43656,0.005 0.64719,-0.0495 0.46806,-0.12197 z m 7.49768,-27.86147 c 0.64834,-3.41812 1.72019,-8.03661 1.97609,-8.51477 0.31373,-0.58621 0.31231,-10.82294 -0.001,-10.28147 -1.01088,1.74467 -3.33572,18.06223 -3.1665,22.225 0.0322,0.79182 0.82259,-1.48206 1.19183,-3.42876 z m -14.9772,-150.65777 c 0,-0.19997 -0.17859,-0.86979 -0.39687,-1.48846 -0.21828,-0.61868 -0.39688,-1.65939 -0.39688,-2.3127 0,-1.02725 0.12959,-1.30651 0.9587,-2.06595 0.9136,-0.83682 0.95007,-0.9357 0.77523,-2.10161 -0.21591,-1.43981 -0.61712,-1.67799 -1.72449,-1.02386 -0.94115,0.55595 -1.6853,1.61354 -3.06115,4.35049 -0.54273,1.07966 -1.33006,2.46327 -1.74961,3.07475 l -0.76283,1.11176 0.86384,0.13316 c 0.47512,0.0732 1.45917,0.24347 2.18677,0.37833 2.07582,0.38468 3.30729,0.36388 3.30729,-0.0559 z m 2.04657,-4.32594 c 0.48846,-0.6147 1.90044,-1.85316 3.13772,-2.75211 1.23728,-0.89895 2.15456,-1.72106 2.03839,-1.82692 -0.11617,-0.10586 -0.65862,-0.33547 -1.20544,-0.51023 -1.73834,-0.55554 -1.93163,-1.65187 -0.7366,-4.17795 l 0.78231,-1.65365 h -0.87788 c -0.48283,0 -1.41356,0.0734 -2.06828,0.16317 l -1.1904,0.16317 0.49201,1.29487 c 0.72507,1.90823 0.65363,2.80858 -0.26467,3.3356 l -0.75669,0.43429 0.35668,1.33935 c 0.5094,1.91288 0.46876,2.14193 -0.56309,3.17378 -0.73901,0.73901 -0.92604,1.13268 -0.92604,1.94911 0,1.25034 0.29906,1.62282 0.64046,0.79766 0.13937,-0.33684 0.65305,-1.1154 1.14152,-1.73014 z m 4.96373,-2.45231 c 0.30089,-0.48686 -0.2526,-0.273 -1.05717,0.40846 l -0.79375,0.67231 0.84312,-0.40717 c 0.46371,-0.22392 0.91722,-0.52705 1.0078,-0.6736 z m 9.12929,0.52729 c 0,-0.29105 -0.10792,-0.52917 -0.23982,-0.52917 -0.1319,0 -0.17754,0.23812 -0.10143,0.52917 0.0761,0.29104 0.18402,0.52916 0.23981,0.52916 0.0558,0 0.10144,-0.23812 0.10144,-0.52916 z m -4.69636,-1.76009 c 0.40018,-0.087 0.72761,-0.31755 0.72761,-0.51239 0,-0.37399 -1.76823,-1.69627 -2.26833,-1.69627 -0.30091,0 -1.70042,2.36 -1.70042,2.86742 0,0.18465 0.43466,0.14687 1.25677,-0.1092 0.69122,-0.21529 1.58419,-0.46259 1.98437,-0.54956 z m -2.71861,-2.28177 c 0.36015,-0.63873 0.34484,-0.74046 -0.19844,-1.31876 -0.46764,-0.49779 -0.58868,-0.93948 -0.58868,-2.14831 0,-0.83693 0.12536,-1.78176 0.27857,-2.0996 0.64534,-1.33882 -1.12996,1.10199 -1.8716,2.57318 -1.10383,2.18971 -1.05147,2.707 0.33626,3.32226 1.34826,0.59778 1.53875,0.56714 2.04389,-0.32877 z m -6.88191,-1.60885 c -0.005,-0.31184 -0.17953,-0.86466 -0.3875,-1.22846 -0.36443,-0.63751 -0.37846,-0.61148 -0.3875,0.7193 -0.008,1.12093 0.0653,1.3521 0.3875,1.22846 0.21828,-0.0838 0.39266,-0.40744 0.3875,-0.7193 z m 9.0769,-0.7965 1.26231,-1.13181 -0.63534,-1.69005 c -0.34944,-0.92951 -0.76562,-1.73347 -0.92485,-1.78655 -0.15923,-0.0531 -0.64973,0.47152 -1.08999,1.16573 -0.57625,0.90863 -0.80049,1.58612 -0.80049,2.41845 0,1.13131 0.36039,2.19152 0.73691,2.16792 0.10403,-0.007 0.75718,-0.52118 1.45145,-1.14369 z m -2.89347,-5.1747 c 0.9699,-1.29878 1.76345,-2.50536 1.76345,-2.68126 0,-0.17589 -0.13791,-0.78012 -0.30647,-1.3427 -0.28361,-0.94661 -0.37732,-1.0215 -1.25677,-1.00429 -0.74197,0.0145 -0.8343,0.0639 -0.42114,0.22544 0.50254,0.19643 0.49687,0.2171 -0.11275,0.41089 -0.61515,0.19556 -2.47156,0.24324 -3.22986,0.0829 -0.26701,-0.0564 -0.38272,0.33525 -0.44248,1.49783 -0.0757,1.47269 -0.0117,1.67243 0.99218,3.09594 0.59022,0.8369 1.07312,1.64655 1.07312,1.79917 0,0.15263 0.0399,0.27752 0.0886,0.27752 0.0487,0 0.88219,-1.06268 1.85208,-2.36149 z m -3.37343,0.97243 c -1.22192,-1.48664 -1.8179,-3.04864 -1.6686,-4.37322 l 0.13357,-1.185 -1.44482,0.14912 c -0.79465,0.082 -1.61519,0.29051 -1.82342,0.46332 -0.6211,0.51546 -0.43471,1.86706 0.53711,3.89491 l 0.9157,1.91076 h 2.02862 2.02862 z m 5.65134,-1.88497 c -0.0647,-0.0625 -0.3431,0.20203 -0.61872,0.58795 l -0.50114,0.7017 0.61873,-0.58795 c 0.3403,-0.32338 0.56581,-0.63916 0.50113,-0.7017 z m -14.06113,-3.12889 c 0.20113,-0.20113 0.3175,-1.21361 0.3175,-2.76251 0,-1.34475 0.11906,-2.51859 0.26458,-2.60853 0.81725,-0.50509 -0.5838,-1.22084 -1.87344,-0.95708 -0.69777,0.1427 -0.95008,0.35939 -1.12645,0.96737 -0.73268,2.52572 -1.65645,2.82655 -4.08213,1.32933 -0.84006,-0.51851 -1.79292,-0.94274 -2.11747,-0.94274 -0.53705,0 -0.59009,0.12755 -0.59009,1.41898 v 1.41899 l 1.70129,0.13656 c 1.33324,0.10702 2.12029,0.36784 3.63802,1.20563 1.97507,1.09023 3.3,1.3622 3.86819,0.794 z m 9.96744,-2.56569 c -0.63857,-0.61424 -3.13394,-1.35014 -4.57823,-1.35014 -0.84561,0 -1.18276,0.14965 -1.63932,0.7276 l -0.57476,0.72761 1.15087,0.1587 c 0.63298,0.0873 2.27866,0.17658 3.65707,0.19844 2.46741,0.0391 2.49811,0.032 1.98437,-0.46221 z m 2.52089,0.23736 c 0,-0.14552 -0.32742,-0.25621 -0.7276,-0.24599 -0.64475,0.0165 -0.66735,0.0445 -0.19844,0.24599 0.72268,0.31054 0.92604,0.31054 0.92604,0 z m -10.00132,-1.15983 c 0.77359,-0.96953 0.72631,-1.22142 -0.22923,-1.22142 -0.4102,0 -0.61858,0.15537 -0.62098,0.46302 -0.002,0.25466 -0.0754,0.73091 -0.16315,1.05833 -0.22966,0.85699 0.18917,0.73302 1.01336,-0.29993 z m 9.63275,-1.11077 c -0.0883,-0.23018 -0.16059,-0.56915 -0.16059,-0.75326 0,-0.43889 -0.90437,-1.47406 -1.28781,-1.47406 -0.16483,0 -0.29969,0.13946 -0.29969,0.3099 0,0.17044 -0.18944,0.51922 -0.42098,0.77506 -0.39155,0.43267 -0.34995,0.50264 0.59531,1.00133 1.24871,0.65878 1.79109,0.70738 1.57376,0.14103 z m -5.98143,-1.26027 c 0,-0.91241 -2.24889,-2.02538 -4.09254,-2.02538 -0.65952,0 -1.199,0.0893 -1.19885,0.19844 5.2e-4,0.32135 2.49525,1.62831 3.60634,1.88926 1.46755,0.34466 1.68505,0.33662 1.68505,-0.0623 z m 3.1239,-1.90009 c -0.0815,-0.0815 -0.2294,0.0654 -0.32876,0.32632 -0.14359,0.37708 -0.1132,0.40747 0.14811,0.14811 0.18082,-0.17947 0.26212,-0.39297 0.18065,-0.47443 z m -12.65002,-0.39196 c -0.39,-0.72873 -2.85611,-2.64489 -3.39608,-2.63875 -0.27989,0.003 0.15115,0.57915 1.18805,1.5875 1.63769,1.5926 2.79184,2.14209 2.20803,1.05125 z m 11.37821,-0.0135 c 0,-0.13694 -0.25271,-0.24897 -0.56157,-0.24897 -0.46732,0 -0.50669,0.0661 -0.2346,0.39396 0.33047,0.3982 0.79617,0.31339 0.79617,-0.14499 z m -4.23334,-2.26404 c 0,-0.2875 -1.77993,-2.58901 -2.62348,-3.39224 l -0.8161,-0.77711 v 2.01447 c 0,1.69607 0.0732,2.03361 0.46302,2.13548 0.71696,0.18736 2.97656,0.20208 2.97656,0.0194 z m 7.1692,-1.61534 c -0.23191,-0.39843 -0.27517,-0.34547 -0.28199,0.34517 -0.004,0.44869 0.0813,0.90647 0.1904,1.0173 0.31587,0.32076 0.39409,-0.84279 0.0916,-1.36247 z m -20.66295,0.761 c 0,-0.23509 -0.67022,-0.87202 -1.29486,-1.23054 -0.25323,-0.14535 -0.21463,0.0493 0.12319,0.62121 0.45196,0.76511 1.17167,1.13939 1.17167,0.60933 z m 8.8075,-2.47906 c -0.11061,-0.9339 -0.34984,-1.53736 -0.75751,-1.91085 -0.32772,-0.30024 -1.17004,-1.91138 -1.87184,-3.58031 -0.70179,-1.66894 -1.52461,-3.32347 -1.82849,-3.67675 l -0.5525,-0.64232 -1.00231,1.0833 c -0.81517,0.88104 -1.2067,1.09822 -2.09701,1.1632 l -1.09471,0.0799 3.13964,2.24287 c 3.52595,2.51883 4.74842,3.78904 5.39281,5.60335 0.5607,1.57868 0.88133,1.40576 0.67192,-0.36239 z m 2.83417,-1.79528 c -0.48878,-0.95809 -1.32292,-1.45622 -1.32292,-0.79002 0,0.22073 1.55115,1.81455 1.79132,1.8406 0.0393,0.004 -0.17144,-0.4685 -0.4684,-1.05058 z m 8.12827,0.0512 c 0.40959,-0.26024 0.15159,-2.03855 -0.35699,-2.46063 -0.21551,-0.17885 -0.36295,-0.81832 -0.36295,-1.57416 0,-0.95302 -0.19886,-1.5932 -0.79127,-2.54728 -1.04802,-1.68787 -1.72528,-3.67879 -2.22465,-6.539742 -0.2256,-1.292473 -0.44689,-2.38666 -0.49176,-2.431531 -0.0449,-0.04487 -0.86334,0.157038 -1.81882,0.448686 l -1.73724,0.530264 0.90743,3.094403 c 0.93691,3.19491 2.0455,5.58766 3.64429,7.86571 0.50725,0.72276 1.30783,1.87965 1.77905,2.57087 0.90931,1.33382 0.94993,1.36299 1.45291,1.04341 z m -6.00733,-6.46736 c -0.56769,-1.05503 -1.28654,-2.84896 -1.59747,-3.98651 -0.31092,-1.13756 -0.73609,-2.477008 -0.94482,-2.976562 -0.37215,-0.890696 -0.41006,-0.908286 -1.95735,-0.908286 -1.39108,0 -1.62915,-0.0783 -2.01126,-0.661458 -0.31255,-0.47702 -0.66903,-0.661458 -1.27844,-0.661458 -0.98252,0 -1.40119,-0.300062 -2.27226,-1.628529 -0.78404,-1.195729 -1.52507,-1.644359 -3.60691,-2.183665 -2.18607,-0.566309 -2.41501,-0.543637 -1.75867,0.174173 0.71107,0.777658 1.23803,1.841068 2.37309,4.788926 0.51271,1.331532 1.05386,2.569799 1.20257,2.751699 0.17248,0.21099 0.98665,0.33073 2.24881,0.33073 1.88061,0 2.02064,0.0425 2.83198,0.85989 0.46945,0.47295 1.34631,1.70692 1.94858,2.74216 1.18693,2.04021 1.58478,2.3115 4.24456,2.89434 0.82465,0.1807 1.52419,0.34075 1.55454,0.35566 0.0304,0.0149 -0.40927,-0.83609 -0.97695,-1.89111 z m -15.28948,-1.87168 c -1.11053,-2.37313 -2.56005,-3.93438 -3.55631,-3.83042 -0.52043,0.0543 -0.93201,0.34659 -1.29179,0.91736 l -0.528,0.83766 1.45025,0.4216 c 1.14219,0.33204 1.77699,0.75155 2.98846,1.97491 0.84602,0.85433 1.58196,1.51392 1.63541,1.46577 0.0535,-0.0481 -0.26065,-0.85224 -0.69802,-1.78688 z m 19.92578,0.0196 c -0.0726,-0.32742 -0.4424,-2.02406 -0.82178,-3.77031 -0.37937,-1.746251 -0.81074,-3.294064 -0.9586,-3.439585 -0.50139,-0.493482 0.6292,5.484785 1.30547,6.902935 0.49855,1.04547 0.66211,1.15119 0.47491,0.30696 z m -30.69159,-1.11179 c 0.85868,-0.35878 0.87542,-0.39475 0.56942,-1.22321 -0.42407,-1.14808 -2.3591,-3.270517 -3.35955,-3.684918 -0.44504,-0.18434 -0.85783,-0.286491 -0.91731,-0.227004 -0.0939,0.09393 0.0936,1.753232 0.56009,4.954972 0.12793,0.87804 0.14515,0.88841 1.19622,0.72034 0.58653,-0.0938 1.46454,-0.33687 1.95113,-0.54018 z m -7.28118,-4.517 c 0.48436,-0.583623 0.26151,-0.658635 -1.07081,-0.360431 -1.69878,0.380225 -1.9373,0.763701 -0.47502,0.763701 0.76233,0 1.33517,-0.149439 1.54583,-0.40327 z m 29.29796,-2.308722 c -0.4473,-0.674788 -1.18181,-0.909063 -1.58525,-0.505619 -0.52416,0.524161 0.007,1.100932 1.01325,1.100932 0.94295,0 0.95695,-0.01458 0.572,-0.595313 z m -3.2619,-3.290837 c -0.0277,-3.348932 -0.0202,-3.34246 -3.58723,-3.111273 l -2.84926,0.184669 -0.74046,-0.797428 c -0.40725,-0.438586 -1.05416,-1.167902 -1.43759,-1.620708 -0.55992,-0.661236 -0.89841,-0.822481 -1.71979,-0.819226 -1.33084,0.0053 -1.86012,0.314251 -1.3143,0.767244 0.21718,0.180242 0.77424,0.918903 1.2379,1.641469 0.95382,1.486393 1.66372,1.92563 4.28721,2.652639 2.55288,0.707435 3.21515,1.103037 4.17004,2.490917 0.618,0.898242 0.97534,1.184854 1.40153,1.124135 0.54063,-0.07702 0.57094,-0.214979 0.55195,-2.512438 z m 10.13043,1.835629 c -0.0782,-0.400183 -0.0467,-3.049323 0.0702,-5.886979 0.11683,-2.837657 0.1114,-5.284658 -0.0121,-5.437783 -0.12347,-0.153122 -0.59588,-1.343747 -1.04979,-2.645833 -0.5383,-1.544143 -1.09419,-2.625117 -1.59853,-3.108442 -0.49959,-0.478758 -0.77324,-1.007282 -0.77324,-1.493372 0,-0.765511 -1.24823,-2.39582 -1.83434,-2.39582 -0.2097,0 -0.27684,0.929426 -0.22458,3.108854 l 0.0745,3.108854 1.05834,0.132292 c 1.53875,0.192344 1.89358,1.091308 2.24529,5.688541 0.37101,4.849395 0.46655,5.372381 1.07686,5.894949 0.30748,0.263276 0.51431,0.775816 0.51431,1.274529 0,0.997019 0.27746,2.487814 0.46302,2.487814 0.0728,0 0.0683,-0.327422 -0.01,-0.727604 z m -2.56412,-5.560997 c -0.93468,-2.727428 -1.9261,-4.821348 -2.62851,-5.551503 -0.75121,-0.780883 -1.72473,-0.755962 -3.57592,0.09154 -2.35959,1.080254 -2.86436,0.751322 -3.61799,-2.357678 -0.16985,-0.700675 -0.40027,-1.176925 -0.51205,-1.058333 -0.44195,0.468852 -1.52126,4.490881 -1.38975,5.178851 l 0.13865,0.725307 h 3.50535 c 3.11976,0 3.58031,0.05897 4.18685,0.53607 0.37483,0.294836 0.76189,0.800851 0.86014,1.124479 0.40286,1.326962 2.48847,3.362256 3.44875,3.365545 0.17288,5.29e-4 0.006,-0.824055 -0.41552,-2.054278 z m -0.2671,-5.04294 c -0.49554,-3.071833 -0.56119,-3.177047 -2.04135,-3.271691 l -1.26902,-0.08114 -0.16256,-3.175 c -0.0894,-1.74625 -0.17871,-3.204765 -0.19844,-3.241146 -0.1126,-0.207623 -1.71649,-0.0098 -2.6817,0.33073 -0.61868,0.218281 -1.82008,0.396875 -2.66979,0.396875 -1.8421,0 -2.04279,-0.242113 -2.36688,-2.855426 -0.11716,-0.944682 -0.37129,-1.817944 -0.56474,-1.940579 -0.37605,-0.238402 -6.83401,-0.325511 -6.83401,-0.09218 0,0.07639 0.41007,0.953183 0.91126,1.948418 1.07596,2.136566 2.0637,3.045875 3.90142,3.591621 3.20326,0.951267 4.62094,2.401988 5.39677,5.52256 0.24733,0.994834 0.61264,1.871316 0.8118,1.947741 0.19916,0.07643 0.99765,-0.171982 1.77441,-0.552016 1.97588,-0.966711 2.93913,-0.913654 4.00908,0.220829 0.47297,0.501489 1.13837,1.583558 1.47867,2.404597 0.76539,1.846628 0.92889,1.472994 0.50508,-1.154187 z m -22.75724,1.888078 c 0,-0.100677 -0.47431,-0.98143 -1.05402,-1.957226 -1.06086,-1.7857 -2.38315,-3.151394 -3.05123,-3.151394 -0.19827,0 -0.89664,0.464039 -1.55194,1.031197 -0.6553,0.567159 -1.33319,1.078442 -1.50641,1.136182 -0.49579,0.165264 -0.042,1.192726 0.97673,2.211446 l 0.91284,0.912841 h 2.63701 c 1.45036,0 2.63702,-0.08237 2.63702,-0.183046 z m 26.28689,-4.645599 c 0.0918,-0.763985 0.16788,-1.969493 0.16914,-2.678907 l 0.002,-1.289843 -0.82682,0.165364 c -0.45475,0.09095 -0.96649,0.165365 -1.13719,0.165365 -0.20349,0 -0.0369,0.865523 0.48364,2.513541 0.4367,1.382448 0.87232,2.513542 0.96805,2.513542 0.0957,0 0.24911,-0.625078 0.34088,-1.389062 z M 152.445,76.70236 c 0.52389,-0.140393 0.59532,-0.330443 0.59532,-1.583886 0,-1.099976 -0.0919,-1.42435 -0.40343,-1.42435 -0.22188,0 -0.51659,-0.297656 -0.65491,-0.661458 -0.13831,-0.363802 -0.3026,-0.661458 -0.36507,-0.661458 -0.32461,0 -1.75159,3.014424 -1.75159,3.700158 0,0.746106 0.0642,0.797525 0.99218,0.794147 0.54571,-0.0021 1.26008,-0.07541 1.5875,-0.163153 z m 0.59532,-5.521777 c 0,-0.800365 -0.0554,-1.455209 -0.12299,-1.455209 -0.36156,0 -0.67128,1.183394 -0.52032,1.988082 0.26471,1.411049 0.64331,1.097449 0.64331,-0.532873 z m -4.14607,-2.92576 c 0.55732,-0.101071 1.07551,-0.345856 1.15153,-0.543968 0.16144,-0.420698 -0.93679,-2.392651 -1.73465,-3.114709 -0.54738,-0.495366 -0.55393,-0.490837 -1.08576,0.749861 -0.29428,0.686533 -0.53505,1.727525 -0.53505,2.313318 0,0.970484 0.0529,1.052388 0.59531,0.922171 0.32742,-0.0786 1.0513,-0.225602 1.60862,-0.326673 z m -4.3206,-8.082756 c 0,-0.857555 -0.0562,-1.559193 -0.1249,-1.559193 -0.22824,0 -0.97174,2.898976 -0.81043,3.159969 0.0872,0.141076 0.33331,0.189434 0.54693,0.107461 0.28068,-0.107707 0.3884,-0.581483 0.3884,-1.708237 z m -5.82497,-4.800338 c -0.0116,-0.930733 -0.78334,-3.457125 -1.19493,-3.911931 -0.40244,-0.444685 -0.79922,-0.515935 -2.74455,-0.492828 -1.9461,0.02313 -2.14053,0.06357 -1.34805,0.280521 0.50932,0.13943 1.46085,0.400765 2.11451,0.580742 1.33833,0.368496 2.38341,1.601028 2.38341,2.810923 0,0.390787 0.0794,0.7899 0.17639,0.886912 0.28582,0.285827 0.61768,0.202303 0.61322,-0.154339 z m 25.40414,-24.804687 c 0,-0.145521 -0.0525,-0.264584 -0.11668,-0.264584 -0.0642,0 -0.19026,0.119063 -0.2802,0.264584 -0.0899,0.14552 -0.0374,0.264583 0.11668,0.264583 0.15411,0 0.2802,-0.119063 0.2802,-0.264583 z m -0.3755,-35.1241072 c -0.28823,-0.288226 -0.39762,0.08866 -0.21475,0.739828 l 0.18252,0.649904 0.093,-0.61803 c 0.0511,-0.339918 0.0238,-0.687183 -0.0607,-0.771702 z M 163.33269,-88.16472 c -0.0215,-1.02433 -0.0656,-1.13443 -0.23821,-0.59531 -0.3062,0.95611 -0.3062,1.85208 0,1.85208 0.14552,0 0.25272,-0.56555 0.23821,-1.25677 z"
       id="path275" />
  </g>
</svg>
