<?xml version="1.0" encoding="UTF-8" standalone="no"?>
<!-- Created with Inkscape (http://www.inkscape.org/) -->

<svg
   version="1.1"
   id="svg9"
   width="1170"
   height="2532"
   viewBox="0 0 1170 2532"
   xmlns="http://www.w3.org/2000/svg"
   xmlnSvg="http://www.w3.org/2000/svg">
  <defs
     id="defs13" />
  <g
     id="g15">
    <path
       style="fill:#121b2d;fill-opacity:1"
       d="M 4e-4,1266 V 0 h 71.8489 71.8489 l 0.5458,39.514877 c 0.6011,43.515018 0.615,43.606844 6.7728,44.83841 7.8042,1.560825 13.3291,10.024721 17.0678,26.146713 6.0917,26.26917 7.2213,30.20528 9.7214,33.87521 1.8791,2.75837 2.8377,5.7845 3.3261,10.5 0.3774,3.64364 1.4492,11.34979 2.3819,17.12479 1.4077,8.71665 1.6048,15.00085 1.1603,37 -0.5389,26.66725 -0.227,30.71812 3.4103,44.2939 1.2651,4.72149 2.0887,5.05167 20.7352,8.31231 16.8525,2.94692 22.6778,5.27156 24.903,9.93779 1.4256,2.98949 1.3993,3.53643 -0.3386,7.06047 -2.3274,4.71941 -9.6249,8.58218 -19.5715,10.35975 -3.7468,0.66958 -6.8123,1.58123 -6.8123,2.0259 0,1.33413 24.3634,2.32304 42,1.70478 10.7175,-0.37572 22.4577,-1.5504 33.5,-3.35191 16.5922,-2.70696 17.9115,-2.77043 55,-2.64637 48.921,0.16365 68.26381,2.14374 74.25,7.60087 2.85943,2.60671 3.01108,7.94143 0.30275,10.64976 -3.51249,3.51249 -19.83365,6.84181 -39.55275,8.06832 -20.7916,1.2932 -78.1603,3.3126 -101,3.55523 -11,0.11686 -25.175,0.69521 -31.5,1.28524 -6.325,0.59002 -18.475,1.34086 -27,1.66853 -19.5702,0.75221 -20,0.84005 -20,4.08781 v 2.57427 l 9.75,-0.65663 c 9.3538,-0.62995 17.8079,-1.38913 39,-3.50219 35.1272,-3.50254 72.3881,-3.35154 127.4806,0.51663 11.4019,0.80055 26.2519,1.46529 33.00004,1.47721 15.53823,0.0275 31.05522,2.05025 36.26936,4.72808 5.27816,2.71071 11.15646,8.70488 11.829,12.06218 1.82814,9.12597 -9.53069,15.86756 -31.62653,18.77068 -27.72487,3.6427 -84.31017,8.33213 -119.70247,9.92017 -7.425,0.33316 -22.5,1.28936 -33.5,2.12488 -13.6733,1.03859 -29.8063,1.41685 -51,1.19574 l -31,-0.3234 -1.7718,7 c -2.0398,8.05887 -5.1972,33.3643 -4.2777,34.28387 0.3396,0.3396 9.0397,0.68238 19.3335,0.76172 16.5257,0.12738 19.8278,0.43862 28.216,2.6595 5.225,1.38337 12.65,3.06393 16.5,3.73457 9.1983,1.60227 11.3776,2.76897 14.1221,7.56034 2.7645,4.8264 2.9877,8.64722 0.6279,10.74765 -5.4455,4.84686 -26.0811,6.79611 -51.7504,4.88835 -16.3838,-1.21765 -31.7967,0.14361 -33.5839,2.9661 -1.9685,3.10904 -0.9426,3.58875 7.4708,3.49317 9.4575,-0.10744 12.6135,1.49506 12.6135,6.40473 0,4.85528 -3.0789,6.40546 -14.207,7.15311 -5.5106,0.37023 -10.387,1.04974 -10.8364,1.51002 -1.4209,1.45532 -13.9048,68.90905 -16.526,89.29439 -1.382,10.74836 -2.9599,22.69248 -3.5064,26.54248 -1.9341,13.62627 -2.8043,60.26296 -3.0974,166 -0.3256,117.43613 -0.088,123.655 4.6808,122.74329 1.7586,-0.33618 2.6722,0.2218 3.7589,2.29575 l 1.4355,2.73988 1.899,-3.88946 c 4.1678,-8.53642 12.1217,-3.42045 10.7592,6.92039 l -0.6337,4.80984 3.0598,-3.05984 c 3.2333,-3.23327 7.7933,-4.08021 10.0137,-1.85985 1.7993,1.7993 1.448,8.12588 -0.7763,13.97967 -1.0869,2.86062 -1.8744,5.27949 -1.75,5.37527 0.1245,0.0958 1.2022,0.68136 2.395,1.30129 4.26,2.214 3.7663,9.71011 -1.5031,22.82407 l -2.0815,5.18031 3.4224,-0.55538 c 2.9986,-0.4866 3.5743,-0.22194 4.6491,2.13701 1.0058,2.2074 0.9221,3.83567 -0.4644,9.03921 -2.0899,7.84318 -2.1505,7.18647 0.7291,7.9092 2.7144,0.68128 4.0966,4.70176 3.0499,8.87191 -0.3694,1.47213 -0.1573,2.8128 0.5105,3.22548 0.6284,0.38843 1.5538,1.78753 2.0562,3.1091 0.5025,1.32157 1.3747,2.40286 1.9383,2.40286 1.6132,0 1.2486,-16.11431 -0.4752,-21 -0.825,-2.3383 -1.5,-5.54488 -1.5,-7.12573 0,-2.39922 0.4132,-2.87427 2.5,-2.87427 1.375,0 2.5,0.45 2.5,1 0,0.55 0.6146,1 1.3657,1 1.104,0 1.0063,-1.29374 -0.5096,-6.75 -1.0315,-3.7125 -1.9835,-9.225 -2.1157,-12.25 -0.2198,-5.02789 -0.047,-5.52743 2.0096,-5.81955 2.8122,-0.3994 2.8069,-0.56551 -0.3489,-10.9116 -3.3463,-10.97076 -3.6415,-17.07452 -0.9011,-18.63209 1.1,-0.62522 2.1236,-1.18533 2.2746,-1.24469 0.151,-0.0594 -0.4562,-4.55936 -1.3494,-10 -1.5963,-9.7234 -1.547,-27.56411 0.087,-31.64207 0.3971,-0.9908 1.7504,-1.75 3.1194,-1.75 1.8867,0 2.5499,0.65922 3.018,3 0.8683,4.34144 1.9842,3.68585 2.7074,-1.59062 0.346,-2.52484 1.5069,-6.57484 2.5797,-9 1.54,-3.4814 2.4659,-4.40938 4.3997,-4.40938 1.3767,0 2.7817,0.76631 3.2084,1.75 0.4175,0.9625 0.9678,7.7125 1.2228,15 0.255,7.2875 0.7729,13.25 1.1508,13.25 0.378,0 2.567,-1.38245 4.8646,-3.07212 4.5001,-3.30936 8.4713,-3.60751 9.0297,-0.67791 0.1835,0.96249 -0.7996,4.22499 -2.1845,7.25 -2.6711,5.83465 -2.6398,6.11159 0.5011,4.43064 2.6854,-1.43722 4.8703,0.42405 4.8703,4.14897 0,1.55908 -1.9991,6.62509 -4.4425,11.25779 l -4.4425,8.4231 6.3901,-0.51294 c 6.1816,-0.4962 6.4109,-0.43053 7.0239,2.01206 0.8038,3.20262 -1.1127,6.93476 -7.5066,14.61777 -4.5206,5.43202 -4.7859,6.01806 -2.8552,6.30562 2.8027,0.41742 4.2822,2.92581 3.4871,5.91224 -0.3521,1.32263 -3.8234,6.19768 -7.7139,10.83346 -3.8906,4.63577 -7.6912,9.62257 -8.4458,11.08177 l -1.372,2.65311 4.1887,-0.0818 c 3.786,-0.0739 4.3496,0.24043 5.8622,3.26979 l 1.6735,3.35156 0.6512,-4.85156 c 0.3581,-2.66837 0.8405,-5.44563 1.072,-6.17171 0.7322,-2.29683 4.7758,-0.8067 7.0694,2.60522 l 2.2084,3.28509 1.7062,-7.78509 c 2.4045,-10.97116 4.0937,-13.81483 7.5655,-12.73623 1.4244,0.44252 1.6278,-0.8588 1.6872,-10.79252 0.071,-11.87056 1.0629,-16.38541 3.8339,-17.44871 1.6069,-0.61665 3.358,0.9206 5.8592,5.14367 0.7212,1.21773 1.0376,-0.90972 1.135,-7.63144 0.074,-5.12592 0.6301,-10.56888 1.235,-12.09548 1.5352,-3.87387 4.0205,-4.5778 6.2858,-1.78034 L 266,876.22155 v -4.029 c 0,-5.5184 0.8165,-7.19257 3.5079,-7.19257 1.7711,0 2.7117,1.01001 4.1267,4.431 2.0155,4.87299 3.3173,4.31887 3.362,-1.431 0.061,-7.86188 4.8525,-20.49995 8.1716,-21.55337 2.7535,-0.87395 5.5023,1.91947 6.267,6.36874 0.3483,2.02655 0.8867,4.95931 1.1966,6.51725 l 0.5634,2.83262 2.1524,-1.97762 c 4.0617,-3.73185 9.156,-6.18015 12.8672,-6.18388 7.112,-0.007 6.6657,5.1748 -1.3614,15.8066 -2.9645,3.92649 -3.7639,5.67916 -2.9579,6.48516 2.4528,2.45274 1.1067,5.87559 -4.4402,11.29112 -4.8845,4.76882 -5.2655,5.41338 -3.2,5.41338 2.6192,0 4.7447,1.69079 4.7447,3.77424 0,0.75583 -2.554,4.05183 -5.6755,7.32445 -4.3488,4.55918 -5.4008,6.22504 -4.5,7.12576 3.5208,3.52081 -0.1898,8.06019 -13.0471,15.9613 l -10.0883,6.19947 3.4054,1.14032 c 2.5909,0.86754 3.4817,1.78369 3.7241,3.82976 0.3413,2.88121 0.3835,2.85445 -11.2886,7.14939 l -4.9701,1.82879 4.1271,1.75279 c 4.1816,1.77589 5.8588,4.32794 4.7475,7.22382 -0.6244,1.62721 -5.6079,3.77919 -13.1845,5.6933 -4.7424,1.19811 -4.9623,1.55205 -2.5913,4.17193 1.2809,1.41547 1.4256,2.34432 0.6351,4.07919 -0.7736,1.6978 -3.2544,2.94182 -10.1587,5.09405 -5.0243,1.56622 -9.1351,3.20473 -9.1351,3.64114 0,0.43642 1.1443,1.08068 2.5428,1.43169 1.3986,0.35102 2.7992,1.30638 3.1126,2.12304 0.4421,1.15197 1.4569,0.68338 4.527,-2.09021 4.4128,-3.98672 7.9009,-4.29775 8.7766,-0.7826 0.532,2.13534 0.6374,2.11469 6.3124,-1.23633 7.2477,-4.27961 10.0067,-5.01007 11.613,-3.07459 1.0704,1.28977 2.5076,0.81793 10.7288,-3.52235 10.0246,-5.29228 12.9601,-5.61748 12.1434,-1.34525 -0.4647,2.43091 -0.4008,2.41603 4.232,-0.98475 6.613,-4.85437 21.2739,-11.72859 23.3307,-10.93932 2.0631,0.79168 2.1529,4.98103 0.1807,8.43097 -0.786,1.375 -1.4451,2.76917 -1.4646,3.09816 -0.019,0.32899 4.2543,-1.61368 9.4972,-4.31705 9.8538,-5.08084 11.9979,-5.4803 13.8268,-2.57605 0.8463,1.34403 0.5674,2.24391 -1.3172,4.25 -1.3149,1.39972 -1.8752,2.54494 -1.245,2.54494 1.8522,0 11.8844,-4.6758 12.6338,-5.88836 0.3779,-0.6114 2.0105,-1.11164 3.628,-1.11164 2.3615,0 2.941,0.43254 2.941,2.19528 0,1.20741 -1.2092,3.45741 -2.6871,5 -3.7698,3.93484 -1.6909,3.50889 8.6109,-1.76424 9.4915,-4.85843 14.3803,-5.51918 16.4441,-2.22252 0.8302,1.32619 0.5663,2.38916 -1.1791,4.75 -1.2368,1.67282 -1.7862,3.04148 -1.221,3.04148 1.2217,0 10.3365,6.28038 14.4054,9.92584 3.9151,3.50771 5.99696,8.51401 4.6146,11.097 -1.3179,2.46247 -3.5201,2.4586 -12.9878,-0.0228 -4.125,-1.08115 -8.5259,-1.97344 -9.7798,-1.98286 l -2.2799,-0.0172 2.2029,3.82772 c 3.5619,6.18892 0.736,9.61522 -5.9393,7.20142 -1.9492,-0.7049 -5.7373,-2.5748 -8.418,-4.15537 -2.6807,-1.58057 -5.2627,-2.87377 -5.738,-2.87377 -0.4752,0 -0.1617,2.19634 0.6968,4.88084 3.1043,9.7073 -0.7703,10.6576 -11.1757,2.7409 -3.8879,-2.9581 -8.0815,-5.68846 -9.319,-6.06745 -1.9704,-0.60344 -2.25,-0.33277 -2.25,2.17835 0,6.1487 -3.1488,6.5564 -17.4158,2.2551 -9.7376,-2.9358 -12.1204,-3.1239 -9.7675,-0.771 1.7259,1.7259 1.4465,5.7451 -0.4501,6.4729 -0.8983,0.3447 -4.6108,-0.1203 -8.25,-1.0334 -3.6391,-0.9131 -8.6416,-1.9596 -11.1166,-2.3257 l -4.5,-0.6654 3.25,3.7022 c 3.6291,4.1341 3.9867,5.7764 1.6754,7.6946 -1.308,1.0855 -3.2124,0.9348 -11.25,-0.8904 -5.3215,-1.2085 -10.8004,-2.4472 -12.1754,-2.7527 -2.1584,-0.4796 -1.9056,-0.018 1.8497,3.376 4.8843,4.4147 5.3053,7.5098 1.0886,8.0026 -1.3995,0.1636 -6.2332,-1.0626 -10.7415,-2.7248 -4.5082,-1.6623 -8.1968,-2.6209 -8.1968,-2.1304 0,0.4906 1.8234,2.4065 4.0519,4.2577 2.9073,2.415 3.8658,3.8509 3.3931,5.0829 -0.7208,1.8783 -3.596,2.2419 -6.297,0.7964 -0.9463,-0.5064 -5.9402,-1.3919 -11.0976,-1.9677 -8.4446,-0.9428 -9.5039,-0.8761 -10.6522,0.6708 -1.1012,1.4834 -0.7065,2.3005 2.8939,5.9904 5.9903,6.1394 4.7908,7.5704 -6.8961,8.2273 l -8.896,0.5 4.25,2.7625 c 4.4774,2.9104 5.2127,4.6937 2.7709,6.7202 -1.0684,0.8866 -2.2734,0.9506 -4.3395,0.2304 -4.6347,-1.6157 -7.9136,-0.4909 -8.409,2.8845 l -0.426,2.9024 h 6.2617 c 7.4868,0 11.3972,1.3043 12.1126,4.0401 0.3392,1.2969 1.1072,1.8368 2.1533,1.5137 5.053,-1.5609 16.2866,-3.4294 17.5963,-2.9268 1.5052,0.5776 1.9247,1.6557 1.6043,4.123 -0.1141,0.8787 1.6136,1.25 5.8165,1.25 10.1624,0 13.5307,2.6286 9.3589,7.3036 -1.6126,1.8072 -1.4044,1.786 2.6528,-0.2695 10.1154,-5.1248 20.3387,-7.5431 25.0078,-5.9154 4.0587,1.4148 5.0361,4.6963 2.1056,7.0692 L 289.7784,1076 h 2.4629 c 1.3546,0 3.992,1.039 5.8608,2.3089 3.3895,2.3031 4.17,4.9997 2.5257,8.727 -0.5176,1.1735 0.3404,1.8083 3.6356,2.6896 5.6855,1.5206 9.9225,4.8955 9.5935,7.6413 -0.1405,1.1733 0.2842,3.1161 0.9438,4.3175 2.2779,4.1487 1.4996,6.2772 -3.0507,8.3426 -5.021,2.2792 -11.7734,2.5295 -15.5497,0.5766 l -2.7003,-1.3965 0.338,4.2371 c 0.3802,4.7663 -1.5272,7.5584 -5.1594,7.5522 -3.5172,-0.01 -8.6867,-3.7714 -10.2218,-7.4454 -0.7826,-1.8729 -2.3095,-3.6868 -3.3933,-4.0307 -1.0837,-0.344 -3.5255,-2.7393 -5.4261,-5.3228 -1.9006,-2.5836 -4.6215,-5.7883 -6.0465,-7.1217 L 261,1094.6514 v 3.2057 c 0,5.8123 -4.4713,5.5108 -13.0163,-0.8777 l -5.4837,-4.0998 -0.5,3.2989 c -0.2894,1.9093 -1.1573,3.4244 -2.0604,3.597 -0.8583,0.164 -6.016,-2.4184 -11.4617,-5.7387 -5.4457,-3.3202 -10.2664,-6.0368 -10.7126,-6.0368 -0.4463,0 -0.089,1.103 0.7946,2.451 0.9454,1.443 1.3385,3.2938 0.9556,4.5 -1.1977,3.7738 -10.7822,2.1308 -17.2505,-2.9572 l -2.6181,-2.0594 -1.2816,3.0482 c -2.1272,5.059 -3.7014,4.737 -12.0891,-2.4728 -4.2769,-3.6762 -9.0779,-7.3646 -10.6688,-8.1964 -2.8336,-1.4814 -2.8799,-1.4643 -2.2666,0.8372 0.3444,1.2922 1.5372,8.1994 2.6509,15.3494 1.1136,7.15 2.9134,18.175 3.9995,24.5 3.1115,18.1194 5.313,43.4047 4.6581,53.5 -0.5177,7.9795 -5.245,28.8167 -12.1375,53.5 -0.8446,3.025 -2.9078,13.375 -4.5847,23 -1.6769,9.625 -4.3069,23.9259 -5.8444,31.7797 -1.5376,7.8539 -2.5226,14.3972 -2.1891,14.5408 0.3335,0.1436 7.6939,0.09 16.3564,-0.1194 13.8478,-0.3346 15.752,-0.5811 15.7664,-2.0408 0.01,-0.9132 1.0338,-3.4603 2.2772,-5.6603 l 2.2608,-4 9.6178,-0.5 c 6.9789,-0.3628 10.1269,-0.9528 11.4729,-2.1503 1.0202,-0.9076 5.5721,-2.6457 10.1153,-3.8623 4.5433,-1.2167 8.465,-2.5431 8.715,-2.9476 0.25,-0.4045 -5.8819,-1.0065 -13.6265,-1.3377 -11.2755,-0.4822 -14.4564,-0.9419 -15.965,-2.3072 -1.0361,-0.9377 -1.8839,-2.2798 -1.8839,-2.9825 0,-1.4944 -1.5863,-2.0247 -8.7922,-2.9397 -4.065,-0.5162 -5.6609,-1.2346 -6.8818,-3.098 -1.4585,-2.2258 -1.4526,-2.5773 0.071,-4.2608 1.5758,-1.7413 1.3829,-2.0032 -3.7795,-5.1319 -7.8594,-4.7633 -9.5348,-9.9223 -3.916,-12.0586 3.1456,-1.196 28.6686,-1.1497 47.7591,0.087 8.2283,0.5328 15.3307,0.5986 15.7831,0.1462 0.4525,-0.4525 -0.9593,-1.6262 -3.1373,-2.6083 -6.2725,-2.8285 -9.4238,-6.7039 -8.925,-10.9757 0.2293,-1.9648 0.3949,-3.6248 0.3678,-3.689 -0.027,-0.064 -8.5992,-0.4245 -19.0492,-0.8008 -19.032,-0.6853 -23.5,-1.5565 -23.5,-4.5825 0,-2.5163 3.5049,-3.471 10.3842,-2.8286 9.0097,0.8414 8.5303,-0.9597 -0.6668,-2.5051 -8.8427,-1.4861 -13.7174,-4.1618 -13.7174,-7.5295 0,-2.9004 1.7271,-4.4713 5.5953,-5.0893 1.5976,-0.2552 4.636,-0.7365 6.7521,-1.0695 3.6627,-0.5764 3.7675,-0.6939 2.1817,-2.4461 -1.4129,-1.5613 -1.467,-2.1587 -0.3569,-3.9364 1.794,-2.8725 7.5857,-2.762 19.1928,0.3662 6.8239,1.8391 13.7103,2.7274 27.2198,3.5111 9.9466,0.577 25.6966,1.9655 35,3.0856 10.8543,1.3068 28.202,2.3476 48.4152,2.9046 38.0081,1.0475 55.2327,2.5899 54.7866,4.906 -0.2235,1.161 -2.9699,2.0128 -10.5911,3.2848 -5.6591,0.9445 -11.0557,1.8901 -11.9924,2.1012 -0.9367,0.2111 1.8969,1.1996 6.2969,2.1966 13.7766,3.1215 17.8337,6.7757 8.9946,8.1012 -4.2043,0.6305 -12.9356,-0.3867 -43.4946,-5.067 -20.6532,-3.1631 -49.641,-2.7619 -56.7967,0.7862 -1.4088,0.6985 -2.9561,2.7243 -3.5897,4.6998 -0.7689,2.3972 -2.3095,4.1416 -4.9767,5.6351 l -3.8631,2.1631 3.4922,1.1525 c 5.2239,1.724 7.1074,4.2733 6.3075,8.5372 l -0.6641,3.54 h 16.4573 c 18.2422,0 29.3678,1.5987 35.6341,5.1206 4.7522,2.6709 6.6006,6.8529 4.7421,10.7289 -2.3704,4.9434 -3.6467,5.0925 -38.7098,4.5208 -23.1484,-0.3775 -32.1004,-0.2233 -31.0331,0.5343 0.825,0.5856 2.2178,1.0717 3.095,1.0801 2.1977,0.021 4.905,3.2275 4.905,5.8092 0,2.5758 -4.8906,8.3573 -9.4563,11.1791 -1.824,1.1273 -3.5477,2.9343 -3.8304,4.0155 -0.3439,1.3147 -1.9938,2.3616 -4.9812,3.1607 -3.3408,0.8935 -4.6974,1.8446 -5.3811,3.7727 -0.8816,2.4865 -0.6999,2.6433 5.1175,4.4146 7.116,2.1666 25.1355,4.5432 35.0315,4.6202 3.85,0.03 8.7124,0.53 10.8053,1.1111 6.6038,1.8339 6.1608,6.4195 -0.809,8.375 -3.1386,0.8806 -4.0336,1.6918 -4.6988,4.259 -0.5076,1.9589 -1.6772,3.4528 -3.0596,3.908 -1.2309,0.4053 -8.6012,0.666 -16.3786,0.5794 -11.6867,-0.1302 -14.3639,0.1114 -15.4272,1.3926 -4.5901,5.5308 -11.2667,5.6152 -36.8188,0.4652 -25.6365,-5.1669 -35.805,-6.4323 -45.9532,-5.7184 -11.5011,0.8091 -19.3649,5.3681 -17.5259,10.1605 0.9994,2.6044 15.8096,5.4834 28.3658,5.5142 10.9814,0.027 22.1824,3.8454 23.5052,8.0131 1.5031,4.736 -4.5374,10.2487 -14.3615,13.1066 -2.3959,0.697 -4.5393,1.742 -4.7631,2.3221 -0.4893,1.2683 -22.3916,1.3604 -30.0607,0.1264 l -5.1801,-0.8335 -0.6448,3.4368 c -0.3546,1.8902 -0.7235,9.2946 -0.8199,16.4541 l -0.1751,13.0173 4.7798,9.4269 c 8.4546,16.6743 12.3916,37.5128 11.316,59.8958 -0.3576,7.4421 -1.0425,25.0061 -1.522,39.0311 -0.607,17.7527 -1.5006,29.1458 -2.9415,37.5 -3.0397,17.6241 -15.3485,78.1468 -20.2359,99.5 l -4.2343,18.5 -0.7232,40.5 c -0.3978,22.275 -0.7718,58.5708 -0.8311,80.6573 l -0.1078,40.1573 3.0478,15.2627 c 5.1799,25.939 7.5746,52.735 9.7624,109.2387 l 0.6898,17.816 5.8119,-7.9527 c 3.1965,-4.374 8.348,-10.5504 11.4478,-13.7253 l 5.636,-5.7726 0.6743,-9.0907 c 1.1832,-15.9533 11.9098,-42.7867 23.3414,-58.3906 6.0738,-8.2906 10.4625,-15.8765 18.629,-32.2001 l 7.2542,-14.5 -1.7309,-10.5 c -2.5615,-15.5387 -4.2611,-21.4426 -8.7339,-30.3386 -6.9474,-13.8175 -18.553,-39.9924 -20.2617,-45.6972 -0.9002,-3.0053 -2.7854,-12.4392 -4.1894,-20.9642 -2.4507,-14.8801 -2.527,-16.5999 -1.9081,-43 0.5917,-25.2385 0.8524,-28.2401 3.1698,-36.5 4.6849,-16.6975 10.4597,-24.4875 18.1593,-24.4963 4.5835,-0.01 8.0619,2.0586 12.5068,7.4206 3.7344,4.5048 3.8176,4.7866 4.3883,14.8659 0.7053,12.4544 -0.019,14.26 -8.7791,21.8931 -3.356,2.9242 -7.9288,7.9808 -10.1616,11.2369 l -4.0598,5.9202 2.1258,17.0798 c 1.1692,9.3939 2.3699,20.4548 2.6683,24.5798 0.2984,4.125 1.4608,12.675 2.5831,19 1.8154,10.2311 3.0718,13.7763 11.387,32.13 5.1406,11.3465 10.3588,23.4063 11.5961,26.7996 l 2.2496,6.1697 4.4279,-8.0885 c 3.776,-6.8976 4.5112,-9.1885 4.993,-15.5597 l 0.5651,-7.4711 -9.9277,-10.24 C 222.7849,1739.7667 216,1728.7557 216,1721.3171 c 0,-5.9728 1.9957,-8.3175 7.0787,-8.3163 4.2993,10e-4 14.6182,4.865 17.92,8.4469 1.3743,1.4909 4.6265,3.626 7.2271,4.7448 2.6005,1.1187 6.5386,3.998 8.7512,6.3984 4.9837,5.4066 5.0583,7.0412 1.4928,32.7005 l -2.5302,18.2086 -8.3966,17 -8.3966,17 2.1065,10 c 1.7179,8.1552 2.1194,13.6895 2.1768,30 0.065,18.5621 -0.093,20.4029 -2.1968,25.6037 -3.3753,8.3428 -9.023,15.7894 -16.2277,21.3963 -3.5336,2.75 -9.1428,7.8684 -12.465,11.3743 -3.3221,3.5059 -8.8358,8.3708 -12.2526,10.8109 -9.3097,6.6487 -11.6334,9.7975 -10.8963,14.7659 0.3303,2.2269 1.5148,11.9239 2.6321,21.5489 2.0503,17.6628 4.737,32.3002 10.0529,54.7698 1.5966,6.7484 3.5825,17.76 4.4133,24.4702 3.8282,30.9221 1.0048,43.2888 -20.7213,90.76 -4.405,9.625 -8.2265,19.3066 -8.4923,21.5147 -0.4534,3.7679 3.5143,32.9194 7.6879,56.4853 1.0228,5.775 2.3685,15.675 2.9905,22 1.4295,14.5362 4.176,38.4287 4.4515,38.7241 0.1149,0.1232 1.9144,-2.6915 3.9989,-6.2548 2.0845,-3.5634 4.3447,-6.8142 5.0227,-7.2241 3.217,-1.9446 15.7291,-20.6458 19.5526,-29.2241 4.652,-10.4373 9.6221,-30.6701 15.1125,-61.5211 2.8513,-16.022 3.2104,-20.1429 3.2671,-37.5 0.056,-17.0922 -0.269,-21.2904 -2.6304,-34 -1.4818,-7.975 -3.366,-18.207 -4.1872,-22.7377 -0.8212,-4.5307 -2.179,-16.0057 -3.0172,-25.5 -0.8382,-9.4943 -1.9716,-19.9623 -2.5186,-23.2623 -0.5471,-3.3 -0.9973,-10.3515 -1.0005,-15.67 -0.01,-8.0867 0.5695,-11.6686 3.5075,-21.8764 3.7897,-13.1663 12.9758,-31.9429 16.8374,-34.416 1.1821,-0.757 4.7159,-1.6869 7.8528,-2.0664 6.3289,-0.7657 5.786,-1.3273 7.2775,7.5288 2.5879,15.3655 2.3442,16.2334 -9.0118,32.0923 -7.0304,9.8179 -7.4531,10.7099 -7.4609,15.7411 0,2.9333 0.875,8.7929 1.9546,13.0213 1.0796,4.2283 2.8788,15.1033 3.9982,24.1666 1.1194,9.0633 3.1611,21.4205 4.5371,27.4605 3.2747,14.3743 3.4432,32.1545 0.456,48.0988 -1.4452,7.7138 -2.3097,18.2586 -2.9448,35.9194 -1.0228,28.4475 -3.4371,43.9165 -9.6316,61.7129 -4.0747,11.7063 -6.227,16.1699 -13.8932,28.8125 -5.7528,9.4871 -6.6051,10.724 -19.2777,27.9746 -4.2424,5.775 -9.512,13.875 -11.7102,18 l -3.9967,7.5 -0.6138,29 c -0.5624,26.5717 -0.8306,29.8935 -3.2028,39.6711 -3.6095,14.8769 -11.4269,34.1723 -19.7993,48.8701 -3.9034,6.8523 -10.5672,19.6615 -14.8085,28.4647 -4.2413,8.8033 -10.9433,21.4867 -14.8935,28.1853 L 134,2484.8705 V 2508.4352 2532 H 67 0 Z m 193.6831,1011.8125 c -0.3192,-0.7977 -0.5562,-0.5608 -0.6042,0.6042 -0.043,1.0541 0.193,1.6448 0.5253,1.3125 0.3323,-0.3323 0.3678,-1.1948 0.079,-1.9167 z m -12.2092,-164.7413 c 5.5714,-19.8431 5.8454,-22.9043 5.199,-58.0712 -0.6404,-34.8455 -0.9399,-38.2522 -6.2198,-70.7606 -1.8992,-11.6934 -3.4531,-22.5793 -3.4531,-24.191 0,-1.6117 -0.3545,-3.1494 -0.7877,-3.4172 -1.3023,-0.8049 -11.6978,8.931 -18.3029,17.1416 l -6.1893,7.6937 0.6467,12.0963 c 0.7767,14.5281 7.4387,67.5894 12.2195,97.3247 2.0875,12.9843 7.2922,40.254 8.0375,42.1125 0.833,2.0772 5.832,-9.1795 8.8501,-19.9288 z m 13.2708,-63.2737 c -0.1857,-4.5636 -0.3386,-1.0975 -0.3399,7.7025 -0.001,8.8 0.1507,12.5339 0.3376,8.2975 0.187,-4.2364 0.1881,-11.4364 0,-16 z m 13.4045,-146.13 c 5.4035,-4.3505 6.3556,-6.44 14.351,-31.4925 5.0452,-15.8087 7.4642,-26.569 7.4578,-33.175 v -2.5 l -1.9368,2.5 c -1.0652,1.375 -4.7589,7.45 -8.2083,13.5 -3.4494,6.05 -8.8834,15.1744 -12.0757,20.2764 -11.9834,19.1527 -16.7786,30.2165 -18.2941,42.2091 l -0.6931,5.4856 7.3762,-6.5301 c 4.0569,-3.5916 9.4684,-8.2147 12.0255,-10.2735 z m 43.9403,-164.978 c -1.775,-1.775 -2.086,-0.2871 -0.807,3.8614 l 1.2175,3.9491 0.3228,-3.3772 c 0.1776,-1.8574 -0.1524,-3.8524 -0.7333,-4.4333 z m 7.4034,-662.678 c 0.3504,-0.5669 -0.051,-0.7346 -0.941,-0.3931 -1.7324,0.6648 -2.0494,1.3816 -0.6109,1.3816 0.5175,0 1.2159,-0.4448 1.5519,-0.9885 z m -82.8347,-74.8075 c -0.5845,-8.89838 -1.0487,-11.14686 -2.0867,-10.10882 -0.2357,0.23568 -0.747,4.35323 -1.1362,9.15012 -0.5189,6.3947 -0.3743,9.1233 0.5418,10.2271 2.5423,3.0633 3.3155,0.3904 2.6811,-9.2684 z m 41.353,8.7503 c 2.2625,-1.1514 5.3975,-4.879 4.6945,-5.5819 -0.7504,-0.7504 -8.8438,3.8841 -10.7101,6.1328 -1.203,1.4496 -1.0363,1.5466 1.5798,0.9193 1.6085,-0.3856 3.6046,-1.0472 4.4358,-1.4702 z m 14.8335,-17.17804 c 1.1226,-1.77306 1.9218,-3.34312 1.7759,-3.48902 -0.5022,-0.50218 -10.6206,4.11057 -10.6206,4.84168 0,0.64856 2.2153,1.32859 5.6518,1.7349 0.6335,0.0749 2.0703,-1.3145 3.1929,-3.08756 z m -50.1392,-15.2878 -1.3022,-6.98846 -1.7765,5.23354 -1.7766,5.23354 2.8249,2.44271 c 1.5537,1.34349 2.9391,2.1332 3.0787,1.75492 0.1397,-0.37828 -0.3321,-3.83259 -1.0483,-7.67625 z M 162.0004,970.5 c -0.7068,-0.85158 -1.51,-1.32333 -1.785,-1.04833 -0.275,0.275 0.078,1.19675 0.785,2.04833 0.7067,0.85158 1.51,1.32333 1.785,1.04833 0.275,-0.275 -0.078,-1.19675 -0.785,-2.04833 z m 56.9203,-8.88319 c 1.1807,-4.33575 1.9658,-8.06405 1.7447,-8.2851 -0.221,-0.22105 -3.678,3.10138 -7.6821,7.38319 l -7.2802,7.7851 5.3987,0.50468 c 2.9692,0.27757 5.4602,0.50257 5.5354,0.5 0.075,-0.003 1.1028,-3.55211 2.2835,-7.88787 z m -56.9203,-16.92964 c 0,-1.42556 -5.1664,-8.85407 -5.7512,-8.26931 -0.2498,0.24975 -0.1501,2.66423 0.2214,5.36552 0.6227,4.5279 0.865,4.87519 3.1026,4.44744 1.335,-0.25518 2.4272,-0.94983 2.4272,-1.54365 z m 893,1575.21623 v -12.0965 l -4.0382,-4.5877 c -2.221,-2.5232 -5.7559,-8.2172 -7.8552,-12.6534 -2.0993,-4.4362 -5.4767,-10.5027 -7.5053,-13.481 -2.0287,-2.9784 -3.4397,-6.0634 -3.1358,-6.8556 0.6938,-1.808 -9.901,-16.0528 -12.8254,-17.2439 -1.1771,-0.4794 -5.946,-1.9098 -10.5976,-3.1785 -7.7032,-2.101 -8.7513,-2.6928 -11.75004,-6.6345 -1.81085,-2.3803 -3.29246,-4.9678 -3.29246,-5.75 0,-2.6303 2.47735,-1.3316 5.51059,2.8888 2.60091,3.6189 4.09771,4.5542 11.00001,6.8735 12.1918,4.0968 13.0966,3.5992 6.4894,-3.5688 -2.2,-2.3867 -4,-4.8287 -4,-5.4267 0,-0.598 -1.5574,-2.2752 -3.4608,-3.727 -1.9034,-1.4518 -3.7712,-3.6122 -4.1506,-4.8009 -0.9266,-2.9031 -0.6215,-9.3576 0.5455,-11.538 0.7587,-1.4177 0.318,-2.1254 -2.245,-3.605 -1.754,-1.0126 -7.4641,-5.0531 -12.6891,-8.9789 -5.225,-3.9259 -11.075,-8.1009 -13,-9.2779 -5.58959,-3.4177 -11.69417,-10.3136 -14.42184,-16.2914 -3.05413,-6.6933 -8.96029,-29.3642 -10.61189,-40.734 -0.74146,-5.1043 -1.92973,-9.1911 -3.10785,-10.6889 -1.04907,-1.3336 -5.9293,-4.7264 -10.84496,-7.5394 -5.1208,-2.9304 -10.59926,-7.0024 -12.8287,-9.5351 -3.54499,-4.0274 -4.41574,-4.4798 -9.78795,-5.0855 -6.74527,-0.7605 -11.39681,-2.7656 -11.39681,-4.9128 0,-1.757 0.48627,-1.8196 3.13224,-0.4035 1.92013,1.0276 11.86776,2.967 11.86776,2.3138 0,-1.1637 -3.52568,-7.3846 -4.18521,-7.3846 -0.44814,0 -0.81479,-0.9179 -0.81479,-2.0398 0,-3.3937 -3.65278,-9.458 -7.43415,-12.3422 -3.5079,-2.6756 -4.73729,-5.618 -2.3473,-5.618 0.67021,0 3.52976,2.2825 6.35457,5.0722 l 5.13601,5.0722 0.54445,-6.0043 c 0.61276,-6.7577 1.58158,-9.2142 2.76802,-7.0185 0.40966,0.7581 0.30259,4.5284 -0.23792,8.3784 -1.09214,7.7791 0.23137,15.7413 3.0974,18.6339 0.89041,0.8987 2.74392,3.0758 4.11892,4.8382 1.375,1.7623 5.2,5.0289 8.5,7.2591 3.3,2.2301 7.01073,4.9673 8.24606,6.0824 1.23533,1.1152 2.46455,1.8091 2.73161,1.5421 0.66917,-0.6692 -3.95621,-19.6332 -7.14155,-29.2802 -2.90477,-8.7973 -7.7331,-15.0142 -14.7786,-19.0288 -3.47236,-1.9786 -5.9559,-2.3958 -17.22103,-2.8926 -17.13588,-0.7557 -25.99125,-3.529 -31.58379,-9.8911 -2.06101,-2.3447 -3.74851,-4.5677 -3.75,-4.94 -10e-4,-0.3724 2.56631,0.8699 5.7062,2.7606 6.23211,3.7528 11.08201,5.4022 15.91011,5.4108 1.71546,0 6.89046,0.6379 11.5,1.4106 17.04282,2.8572 18.1674,2.9292 17.14276,1.0983 -1.01022,-1.8052 -7.91583,-5.9704 -21.74652,-13.1167 -14.80053,-7.6475 -31.88342,-19.8205 -33.07252,-23.567 -0.6329,-1.9941 -6.15596,-3.8057 -11.62763,-3.814 -7.87709,-0.012 -13.21198,-3.9762 -17.97507,-13.3568 -1.63404,-3.2181 -3.22357,-5.5986 -3.53229,-5.2899 -1.47221,1.4722 -16.95617,-8.7784 -18.88013,-12.4989 -3.08493,-5.9656 -0.93402,-8.0335 2.52854,-2.431 2.08182,3.3685 9.8966,8.1201 12.13024,7.3755 0.60543,-0.2018 -2.56939,-4.3187 -7.05514,-9.1487 -7.60507,-8.1887 -8.91949,-10.5264 -6.39234,-11.3688 0.55764,-0.1859 5.23303,3.7235 10.38974,8.6875 5.1567,4.964 9.50982,9.0255 9.67359,9.0255 0.16377,0 0.29336,-1.9125 0.28799,-4.25 -0.0117,-5.0872 -3.23395,-12.2314 -8.87664,-19.6806 -4.40534,-5.8158 -4.71046,-6.5825 -3.03233,-7.6196 1.74866,-1.0808 6.54193,4.3046 10.44885,11.7395 3.6822,7.0072 6.79455,21.2954 5.85319,26.8708 -1.07017,6.3383 8.8145,16.8813 15.8667,16.9234 3.22716,0.019 3.25834,-0.1032 1.08921,-4.2832 -1.0147,-1.9553 -1.76923,-6.1715 -1.93953,-10.8377 -0.33692,-9.2316 -2.23296,-14.2079 -6.1938,-16.2561 -4.04281,-2.0907 -4.84757,-5.4073 -1.51497,-6.2438 2.20247,-0.5528 2.42721,-1.0063 1.85628,-3.7458 -1.43572,-6.8892 -1.80295,-12.6169 -0.80893,-12.6169 1.8368,0 3.42463,2.8345 5.72545,10.2206 l 2.26755,7.2794 6.88437,3.6785 c 6.75813,3.6111 16.31498,7.2242 17.08132,6.4579 0.21391,-0.2139 -0.53017,-2.8071 -1.65351,-5.7627 -2.44217,-6.4254 -2.47761,-6.8737 -0.54344,-6.8737 0.825,0 1.5,-0.1877 1.5,-0.4171 0,-1.4476 -4.3852,-10.2214 -6.48416,-12.9732 -1.38371,-1.8142 -2.51584,-4.4935 -2.51584,-5.9541 0,-2.6409 3.62112,-7.3678 4.76667,-6.2223 0.33,0.33 0.0675,1.1325 -0.58334,1.7834 -1.50133,1.5013 -1.54188,6.4437 -0.0604,7.3593 0.61762,0.3817 2.43191,3.4458 4.03174,6.809 l 2.90879,6.115 -0.62669,-6.8934 c -0.34469,-3.7914 -1.20693,-8.5379 -1.91609,-10.5479 -1.03846,-2.9433 -1.04413,-3.99 -0.0292,-5.378 1.14104,-1.5605 1.40424,-1.4141 2.78251,1.5479 0.83724,1.7993 2.10555,5.9298 2.81846,9.1788 l 1.29621,5.9075 3.30566,-3.8241 c 1.81811,-2.1032 3.57974,-3.55 3.91473,-3.215 0.6693,0.6693 -2.61348,5.653 -5.06244,7.6855 -0.85067,0.706 -1.54668,2.7894 -1.54668,4.6298 0,2.7101 0.3163,3.2248 1.66404,2.7076 1.17299,-0.4501 1.43446,-0.2671 0.88604,0.6203 -0.42791,0.6923 -1.3772,3.5302 -2.10954,6.3064 -1.27754,4.8429 -1.21775,5.2752 1.47479,10.6611 1.54347,3.0874 3.54506,7.8635 4.44798,10.6135 3.67742,11.2002 6.44338,13.271 22.00288,16.4725 5.25072,1.0803 11.19631,2.6535 13.21241,3.4959 6.13412,2.563 6.01454,1.8061 -0.83566,-5.2895 -5.1025,-5.2852 -6.73069,-7.7056 -7.23145,-10.75 -0.35545,-2.1609 -0.88122,-5.187 -1.16838,-6.7246 -0.29802,-1.5958 -2.84422,-5.0994 -5.9326,-8.1632 -4.47133,-4.4357 -5.41051,-5.9682 -5.41051,-8.8285 0,-1.9036 -0.69515,-5.4302 -1.54478,-7.8369 -1.81521,-5.1417 -1.26101,-8.3741 1.70822,-9.9632 1.90428,-1.0191 2.04525,-0.9397 1.28068,0.7212 -2.14669,4.6633 -0.0906,13.0787 4.70356,19.2512 l 1.85232,2.3848 v -5.4941 c 0,-5.0085 0.36255,-5.9059 4.10213,-10.1543 4.10498,-4.6635 7.89787,-7.4588 7.89787,-5.8206 0,0.4791 -1.64168,2.9782 -3.64818,5.5537 -6.52364,8.3734 -3.21673,7.0344 9.15748,-3.7079 3.0285,-2.6291 4.64136,-4.9327 5.07609,-7.25 0.35046,-1.8681 1.03711,-3.3965 1.5259,-3.3965 1.38577,0 1.01699,4.2316 -0.61005,7 -0.8081,1.375 -1.75759,3.3014 -2.10998,4.2809 -0.35239,0.9796 -2.5804,2.9177 -4.95113,4.3071 -5.57843,3.2691 -11.45337,9.8006 -11.39194,12.6649 0.0537,2.5032 11.04132,23.9484 12.51513,24.4265 1.21175,0.3931 5.43668,-6.9907 5.43668,-9.5016 0,-1.0592 -1.16572,-4.0116 -2.59049,-6.5608 -3.99025,-7.1393 -3.34216,-16.617 1.13629,-16.617 1.02356,0 0.98092,0.6414 -0.2,3.0086 -1.5281,3.0632 -1.27727,6.7463 0.83278,12.2287 1.40621,3.6536 2.37731,2.8022 4.28377,-3.7558 0.95755,-3.2939 2.15574,-5.4815 3.00226,-5.4815 1.17267,0 1.10956,1.079 -0.37657,6.4384 l -1.78532,6.4384 4.59864,-1.8105 c 2.52925,-0.9958 5.43849,-2.1613 6.46497,-2.59 1.63816,-0.6843 1.73102,-0.5267 0.75952,1.2885 -0.61829,1.1553 -3.28306,2.791 -6.03738,3.7058 -5.76194,1.9138 -7.08847,4.432 -7.08847,13.4561 0,6.8695 1.15757,8.6672 9.29261,14.4314 8.17316,5.7911 14.51562,8.9253 16.83455,8.3189 1.10343,-0.2886 2.27635,0.1922 2.84479,1.166 0.81987,1.4045 0.97187,1.2979 0.99764,-0.6998 0.0167,-1.2963 1.80203,-4.5819 3.96734,-7.3015 2.16531,-2.7195 4.72592,-7.0105 5.69025,-9.5355 l 1.75333,-4.5911 -2.94026,-2.3526 c -1.61714,-1.2939 -4.29025,-2.3864 -5.94025,-2.4278 -1.65,-0.041 -3.9,-0.4453 -5,-0.8976 -1.84705,-0.7595 -1.86502,-0.8775 -0.23506,-1.5425 0.97072,-0.396 2.65822,-0.4865 3.75,-0.2009 2.23149,0.5835 2.57426,-0.3045 0.80173,-2.077 -0.65084,-0.6509 -0.8664,-1.5003 -0.47904,-1.8877 0.38737,-0.3873 2.71043,1.2646 5.16237,3.671 2.45194,2.4064 4.73195,4.1014 5.0667,3.7666 0.33474,-0.3347 0.85668,-3.3441 1.15985,-6.6876 0.49749,-5.4864 0.3671,-6.0795 -1.33766,-6.0846 -3.93317,-0.012 -9.31744,-2.149 -15.49519,-6.151 -3.51653,-2.2781 -8.60686,-4.729 -11.31182,-5.4465 -6.72604,-1.7841 -8.25458,-3.8003 -7.69257,-10.1469 0.22859,-2.5814 2.11069,-1.1302 2.11069,1.6276 0,3.6229 1.47587,4.8401 7.88447,6.5025 3.76398,0.9763 5.11553,1.0222 5.11553,0.1734 0,-0.6344 -0.42802,-1.5815 -0.95115,-2.1046 -2.01759,-2.0176 -6.1571,-14.7407 -5.13008,-15.7677 0.68755,-0.6875 1.16219,-0.5578 1.46922,0.4016 1.32452,4.1387 1.45721,4.3314 1.53306,2.2262 0.0434,-1.205 0.55311,-2.484 1.13263,-2.8422 0.71329,-0.4408 0.88112,1.1679 0.5195,4.9799 -0.41619,4.3871 -0.20955,5.7556 0.93546,6.195 0.8083,0.3102 1.94188,2.3177 2.51905,4.4611 0.57717,2.1435 1.4258,3.8972 1.88585,3.8972 0.91936,0 2.08646,-4.8576 2.08646,-8.684 0,-1.4578 0.42456,-2.1716 1.05855,-1.7798 0.5822,0.3598 0.83615,1.8489 0.56433,3.309 -0.27181,1.4601 -0.77758,4.8046 -1.12391,7.4321 l -0.62971,4.7773 4.31537,1.8713 c 2.37345,1.0292 5.77787,2.1777 7.56537,2.5522 l 3.25,0.6808 v -4.8381 c 0,-4.2713 -0.70883,-5.8799 -6.0499,-13.7295 -6.03537,-8.8699 -7.14652,-12.7478 -3.83345,-13.3787 2.00667,-0.3822 7.2777,3.9686 10.95032,9.0385 1.89839,2.6207 3.00791,3.4368 3.52813,2.595 0.968,-1.5662 0.56989,-9.6693 -0.58068,-11.8192 -0.96637,-1.8056 -18.24285,-6.2523 -31.01442,-7.9826 -25.48358,-3.4524 -43.28483,-5.3825 -56,-6.0716 -31.33841,-1.6984 -43.29319,-3.0003 -47.71139,-5.1959 -2.31626,-1.151 -4.04673,-2.3592 -3.84549,-2.6848 0.20124,-0.3256 -13.52506,-0.592 -30.5029,-0.592 -26.73778,0 -31.07923,-0.2104 -32.44125,-1.5725 -0.86485,-0.8648 -1.29979,-2.283 -0.96654,-3.1514 0.77026,-2.0073 3.5517,-2.7433 10.46757,-2.77 3.025,-0.012 8.2,-0.4555 11.5,-0.9863 3.3,-0.5309 13.2,-1.6471 22,-2.4805 12.24061,-1.1593 20.69887,-2.693 35.99841,-6.5273 16.24441,-4.0712 21.68815,-5.0261 29,-5.0871 10.89626,-0.091 26.26874,-2.2863 22.50159,-3.2135 -4.38994,-1.0805 -50.89041,-2.8655 -85.24689,-3.2723 -38.38251,-0.4546 -64.08668,-1.6857 -67.95081,-3.2545 -1.48374,-0.6024 -3.46487,-2.2662 -4.40252,-3.6972 -1.62431,-2.479 -1.61048,-2.729 0.2929,-5.2946 2.16349,-2.9163 1.87558,-2.859 25.85339,-5.1414 6.07534,-0.5783 28.47398,-1.0514 49.77475,-1.0514 h 38.72868 l 0.92738,-2.4392 c 1.26424,-3.3252 3.96186,-4.5608 9.95738,-4.5608 5.30424,0 5.64343,-0.3504 4.14772,-4.2844 -0.83941,-2.2078 -1.8029,-2.524 -11.25,-3.6917 -5.68259,-0.7025 -23.53548,-1.4478 -39.67308,-1.6562 -22.77281,-0.2942 -30.9437,-0.7516 -36.5,-2.0432 -3.9374,-0.9153 -13.72864,-1.9253 -21.75831,-2.2443 -15.91048,-0.6323 -17.15855,-1.0639 -19.53793,-6.756 -1.22002,-2.9187 -1.79466,-3.2253 -7.0951,-3.7856 -12.3462,-1.3052 -14.04206,-1.6799 -16.04309,-3.5441 -3.23558,-3.0144 -3.71033,-5.8661 -1.4758,-8.8647 l 1.95973,-2.6298 26.3958,-1.7723 c 22.14746,-1.4871 26.991,-2.0907 30.09392,-3.75 3.10795,-1.6621 5.6613,-1.9781 16,-1.9805 6.76603,0 16.25959,-0.4882 21.09679,-1.0815 7.1435,-0.8761 10.24168,-0.7934 16.5,0.4406 4.2378,0.8356 10.40509,1.8204 13.70509,2.1884 3.3,0.3681 9.06692,1.2961 12.81538,2.0623 10.13285,2.0711 21.82269,1.8535 24.79976,-0.4616 4.37762,-3.4042 9.94618,-4.4925 23.38486,-4.5702 19.16318,-0.1108 38.5,4.5151 38.5,9.2103 0,2.0242 5.3616,4.2145 10.3168,4.2145 5.3536,0 13.07453,2.3004 15.34655,4.5724 4.89992,4.9 1.29511,10.6448 -7.40347,11.7987 -3.89645,0.5169 -5.29456,1.1628 -5.77181,2.6665 -1.43042,4.5069 -4.88808,5.0569 -31.77963,5.0551 -13.86464,0 -26.21783,0.2508 -27.45153,0.5595 -2.6153,0.6543 -2.03673,2.3478 0.80211,2.3478 2.97188,0 2.30742,1.9763 -1.05902,3.1498 -2.98187,1.0395 -4.1394,2.8934 -1.75,2.8028 11.70001,-0.4436 76.23615,1.3209 78.61269,2.1494 5.0455,1.7588 5.63118,8.0257 0.91294,9.7686 -1.2516,0.4623 -8.57563,1.1317 -16.27563,1.4876 -7.7,0.3558 -17.825,1.3202 -22.5,2.143 -4.675,0.8228 -10.1125,1.4967 -12.08333,1.4974 -1.97084,8e-4 -3.83439,0.2525 -4.14124,0.5593 -1.38767,1.3877 0.82033,4.7054 4.31959,6.4906 2.11096,1.0769 4.265,2.7557 4.78675,3.7306 1.33524,2.4949 -0.44301,5.2209 -3.40578,5.2209 -3.24406,0 -6.13521,5.2578 -4.66522,8.484 1.48538,3.2601 13.77439,4.5211 42.18923,4.3292 16.12071,-0.1088 24.86617,0.2302 27.85087,1.0798 2.3931,0.6811 4.5107,1.0788 4.7058,0.8836 0.1952,-0.1951 -0.2677,-3.9372 -1.0285,-8.3157 -0.7608,-4.3785 -2.3299,-15.1609 -3.4869,-23.9609 -3.2623,-24.8129 -4.7449,-31.5523 -11.54901,-52.5 -3.48367,-10.725 -9.54046,-31.2 -13.45953,-45.5 -6.67199,-24.3449 -9.56906,-34.2325 -19.19154,-65.5 -5.54376,-18.014 -8.61625,-32.9197 -9.37886,-45.5 -0.63287,-10.44 0.68588,-37.8584 2.54806,-52.9771 l 0.85937,-6.977 -7.22684,-7.023 c -11.47418,-11.1504 -24.46385,-26.3744 -28.12445,-32.962 -1.85235,-3.3335 -6.05405,-12.8109 -9.33712,-21.0609 -10.48409,-26.3455 -15.38868,-44.652 -19.55783,-73 -7.78508,-52.9346 -26.48643,-135.1127 -39.82491,-175 -3.86237,-11.55 -8.94128,-27.75 -11.28647,-36 -11.65369,-40.9958 -23.03131,-74.1676 -31.04066,-90.5 -5.54772,-11.3127 -5.05067,-19.5752 0.94141,-15.649 3.52062,2.3068 10.55544,11.8027 17.188,23.2011 12.77247,21.9503 14.50343,25.1733 18.99068,35.3607 8.43755,19.1556 23.73834,68.0909 28.79324,92.0872 0.86895,4.125 2.95787,15.15 4.64205,24.5 1.68418,9.35 4.87697,24.875 7.09508,34.5 7.33049,31.809 16.04761,78.8534 19.30204,104.169 2.39489,18.6294 7.8601,38.2025 19.14003,68.5482 8.22087,22.1161 10.99876,26.1179 25.48025,36.707 l 8.92933,6.5292 0.58881,-2.7267 c 0.32385,-1.4997 2.35479,-9.1542 4.51321,-17.01 2.15841,-7.8559 3.92439,-15.1037 3.92439,-16.1062 0,-1.0026 -1.55242,-3.856 -3.44983,-6.341 -4.68577,-6.1368 -10.0982,-16.1598 -12.60091,-23.3351 -2.37684,-6.8144 -6.45038,-24.4181 -7.47038,-32.2829 -0.38151,-2.9417 -1.94102,-8.1167 -3.46558,-11.5 -3.4185,-7.5864 -7.5216,-24.1028 -10.09882,-40.6515 -1.07069,-6.875 -2.62962,-16.55 -3.46429,-21.5 -0.83468,-4.95 -2.40756,-16.65 -3.4953,-26 -1.08775,-9.35 -2.92687,-19.925 -4.08695,-23.5 -3.45785,-10.656 -16.10053,-35.0701 -24.25197,-46.8327 -4.18871,-6.0444 -7.6159,-11.4797 -7.6159,-12.0786 0,-1.7045 6.07874,-1.2361 10.59893,0.8167 2.25441,1.0239 5.1134,3.2862 6.35331,5.0275 10.04905,14.1126 25.89373,51.5034 34.56474,81.5671 2.99196,10.3736 4.55006,14.4281 5.05172,13.1456 2.17021,-5.5479 -3.96862,-58.4195 -9.05676,-78.0027 -3.297,-12.6894 -4.55996,-15.5908 -22.73436,-52.2266 -16.26491,-32.7867 -19.12427,-40.2357 -29.82052,-77.6867 -4.95045,-17.3331 -5.89218,-24.6041 -3.297,-25.4557 1.47604,-0.4843 5.97625,4.3275 7.17604,7.673 0.50359,1.4042 3.65216,9.5281 6.99681,18.0531 3.34465,8.525 8.62494,22.925 11.73397,32 3.10903,9.075 9.70986,25.725 14.66852,37 4.95866,11.275 11.36828,26.125 14.24361,33 2.87533,6.875 6.43841,14.75 7.91795,17.5 l 2.69009,5 -0.59071,-9.5 c -1.21839,-19.5944 -9.19368,-68.6198 -13.58352,-83.5 -7.574,-25.6736 -15.00684,-46.8265 -20.9075,-59.5 -6.44661,-13.8461 -10.00532,-22.9413 -10.00532,-25.5712 0,-2.0272 3.13983,-2.5672 5.59061,-0.9614 3.95906,2.5941 15.54576,23.2699 20.75305,37.0326 3.97539,10.5069 14.31003,43.8717 16.57713,53.5185 3.08736,13.137 8.76961,47.8096 10.64936,64.9815 0.93321,8.525 2.01646,16.1061 2.40722,16.8468 0.40244,0.7629 1.4839,-2.4889 2.49429,-7.5 1.95435,-9.6926 3.36897,-40.9546 3.46964,-76.6764 0.0323,-11.4562 0.54958,-24.9918 1.14955,-30.079 1.01858,-8.6367 0.91678,-9.973 -1.53664,-20.1704 -6.12802,-25.4706 -12.76039,-43.7825 -18.50071,-51.0801 -3.69081,-4.6921 -1.5971,-10.4351 2.79442,-7.665 4.47913,2.8253 21.41795,34.0867 25.5291,47.115 4.09157,12.9664 4.78995,26.1102 4.36812,82.2091 l -0.37972,50.5 -3.71036,18 c -6.33031,30.7101 -9.68261,56.4776 -10.2127,78.5 -0.43329,18.0006 -0.35531,19.2067 1.01416,15.6854 0.81595,-2.0981 1.68957,-5.4731 1.94138,-7.5 0.88723,-7.1418 4.59111,-22.0538 8.64327,-34.7982 2.25368,-7.0879 5.40813,-18.3937 7.00989,-25.1238 1.60177,-6.7301 3.98798,-14.8301 5.3027,-18 2.81216,-6.7803 3.83743,-11.1413 6.87982,-29.2634 4.62792,-27.5661 2.41893,-73.1862 -4.99733,-103.2064 -0.91122,-3.6885 -1.35811,-7.0051 -0.99308,-7.3701 0.36503,-0.365 1.77717,-0.3842 3.13808,-0.043 2.99015,0.7505 6.48795,7.6152 9.49055,18.6259 1.1239,4.1213 2.85,9.9683 3.8358,12.9933 1.5646,4.8009 1.7694,8.9319 1.6114,32.5 -0.2163,32.2588 -2.8703,54.3431 -8.917,74.1986 -3.47405,11.4076 -11.18166,47.3034 -19.49704,90.8014 -3.97279,20.7818 -4.01039,21.1974 -3.61815,40 0.37481,17.967 0.59781,19.7882 4.10145,33.4967 2.0378,7.9731 4.0723,14.8639 4.5211,15.3127 0.4488,0.4488 1.57724,-2.2145 2.50764,-5.9185 0.9304,-3.7039 3.68711,-11.7797 6.12603,-17.9462 5.06295,-12.8011 13.99257,-47.0473 17.84677,-68.4447 2.7044,-15.014 4.5753,-35.8869 4.6162,-51.5 0.038,-14.3095 3.4509,-25.3537 12.3241,-39.8747 4.6554,-7.6185 6.995,-14.8555 10.5472,-32.6253 5.2069,-26.0475 6.4519,-37.7617 5.8409,-54.9572 -0.6419,-18.0668 -1.6412,-22.5352 -11.3023,-50.5428 -5.5201,-16.0028 -6.9371,-21.5537 -8.9822,-35.1887 -2.3774,-15.8492 -2.4336,-17.7078 -2.681,-88.6277 l -0.2527,-72.439 -2.5,0.981 c -1.375,0.5396 -5.875,1.8117 -10,2.8269 -4.125,1.0152 -10.84132,2.9937 -14.92515,4.3967 -8.62667,2.9636 -12.93124,3.1873 -17.7083,0.9205 -6.47742,-3.0738 -6.74929,-7.3149 -0.76166,-11.8819 1.93956,-1.4794 3.32802,-2.8882 3.08548,-3.1308 -0.24254,-0.2425 -5.7846,-0.8719 -12.31568,-1.3986 -6.53108,-0.5267 -18.39969,-1.8567 -26.37469,-2.9557 -32.32525,-4.4543 -37.17418,-4.9699 -53.5,-5.688 -9.35,-0.4114 -25.775,-0.793 -36.5,-0.8482 -15.00901,-0.077 -20.87265,-0.4879 -25.4601,-1.7834 -3.27805,-0.9257 -7.77805,-1.7151 -10,-1.7541 -5.38656,-0.095 -23.61063,-6.094 -24.9469,-8.2125 -2.77764,-4.4034 9.13298,-8.8405 25.407,-9.4649 10.08631,-0.3869 12.91369,-0.1 23,2.3368 11.19559,2.7045 12.53236,2.7971 50.5,3.4989 21.73458,0.4017 41.63389,1.226 44.94957,1.8619 7.61174,1.4599 54.62055,-0.1905 69.05043,-2.4242 12.4599,-1.9288 23.3697,-5.9984 23.9717,-8.942 0.2343,-1.1456 0.7096,-5.1181 1.0562,-8.8277 0.6265,-6.7052 0.6136,-6.7513 -2.1989,-7.8702 -1.5559,-0.619 -7.9487,-1.25 -14.2062,-1.4021 -11.3014,-0.2747 -13.62275,-1.0166 -12.48215,-3.9889 0.25059,-0.6531 3.13395,-2.4238 6.40745,-3.9351 6.5023,-3.0019 7.0465,-4.2131 3.8866,-8.6508 -4.0743,-5.7217 -15.54977,-10.3146 -35.9347,-14.3824 -4.675,-0.9329 -15.925,-3.4233 -25,-5.5342 -9.075,-2.1108 -19.22641,-4.1317 -22.55868,-4.4907 -3.33228,-0.3591 -22.00728,0.1074 -41.5,1.0366 -28.6167,1.3642 -38.5223,1.4781 -51.44132,0.5912 -8.8,-0.6041 -20.05,-1.3156 -25,-1.581 -7.74959,-0.4155 -31.46441,-4.63 -42.5,-7.5528 -1.925,-0.5099 -9.575,-1.6345 -17,-2.4991 -13.14803,-1.5311 -23.63408,-3.6944 -27.22663,-5.6171 -1.08031,-0.5782 -1.77337,-2.0977 -1.77337,-3.8882 0,-5.1977 7.55084,-7.4069 29,-8.4846 14.67417,-0.7374 28.67559,0.3434 65.5,5.0557 29.72455,3.8038 43.58582,4.9964 75,6.4527 32.35401,1.4999 126.8166,3.0842 127.4428,2.1374 0.3065,-0.4633 2.234,-1.107 4.2835,-1.4303 5.862,-0.9249 15.8557,-5.807 16.761,-8.188 0.4413,-1.1608 1.121,-5.5098 1.5103,-9.6645 l 0.7079,-7.5539 -3.659,-3.0161 c -6.2774,-5.1744 -8.4604,-5.4162 -53.42037,-5.9181 -82.51626,-0.921 -97.90826,-1.3977 -109.12613,-3.3792 -5.775,-1.0202 -12.975,-2.1378 -16,-2.4837 -14.87308,-1.7006 -24,-4.919 -24,-8.463 0,-2.6862 7.64764,-4.7814 22.5,-6.1643 10.18681,-0.9485 13.35989,-0.8712 21,0.5117 22.07492,3.9956 22.5189,4.0141 64.60013,2.692 80.51827,-2.5296 86.98697,-2.8571 94.39987,-4.7792 l 7,-1.8151 0.6258,-7 c 0.3442,-3.85 0.6894,-21.85 0.7671,-40 0.1412,-32.98377 1.1635,-63.30707 3.1184,-92.5 0.5709,-8.525 1.4655,-30.575 1.9881,-49 0.5226,-18.425 1.4358,-37.775 2.0293,-43 0.7242,-6.37619 0.8502,-24.71348 0.3832,-55.76657 l -0.6958,-46.26657 -2.608,-0.59904 c -1.4345,-0.32948 -7.1081,-2.30285 -12.6081,-4.38528 -5.5,-2.08243 -13.8346,-4.97508 -18.5214,-6.42812 -17.7816,-5.51284 -39.99285,-18.96016 -55.17245,-33.40299 -11.06339,-10.52641 -22.09258,-25.6126 -31.07157,-42.50102 C 912.72393,579.89288 911.00709,576.20705 905.54017,559.41366 900.77334,544.7708 899.30635,541.49306 894.61352,535 887.46828,525.11373 872.7405,498.5373 868.92336,488.64185 857.92774,460.13709 848.4918,410.10585 844.09557,357 c -1.11549,-13.475 -2.54486,-30.35 -3.17637,-37.5 -0.63151,-7.15 -1.49659,-28.075 -1.9224,-46.5 -0.74177,-32.09661 -0.90346,-34.10744 -3.85974,-48 -1.69704,-7.975 -3.09704,-14.78404 -3.1111,-15.1312 -0.0141,-0.34717 -4.94677,-5.67886 -10.96159,-11.8482 -13.24525,-13.58554 -15.06397,-16.97323 -15.06397,-28.05936 0,-12.34899 2.59897,-15.96124 11.48392,-15.96124 8.37145,0 14.0184,4.77052 16.70547,14.11273 4.8365,16.81516 6.06691,22.2512 6.87792,30.38727 0.49343,4.95 1.33239,13.5 1.86436,19 0.53198,5.5 1.65999,14.725 2.50671,20.5 0.84671,5.775 1.9688,23.325 2.49354,39 0.52474,15.675 1.63139,34.575 2.45923,42 0.82784,7.425 2.21144,23.85 3.07466,36.5 1.62692,23.84149 5.84202,55.85551 10.20396,77.5 4.22852,20.98241 13.7054,49.76222 21.52021,65.35348 2.16502,4.31941 4.0556,7.69441 4.20128,7.5 0.35661,-0.47587 -0.92644,-26.30237 -2.37733,-47.85348 -0.83978,-12.47376 -0.9891,-39.18463 -0.51991,-93 0.60609,-69.51747 0.84877,-77.40173 3.06258,-99.5 2.05497,-20.51268 4.5048,-53.62929 4.84386,-65.47878 0.0875,-3.05728 -0.34105,-3.68786 -3.53671,-5.20431 -2.42886,-1.15258 -4.00561,-2.78509 -4.74865,-4.91659 -0.61183,-1.75508 -2.62159,-5.03814 -4.46615,-7.29569 -4.20711,-5.14907 -5.96855,-8.6085 -8.02378,-15.75854 -2.88754,-10.04562 -1.51929,-22.71803 2.90127,-26.87093 2.13742,-2.008 3.08398,-2.19627 8.30074,-1.65101 3.24056,0.3387 8.23071,1.79201 11.09776,3.23204 10.6377,5.34301 11.62431,10.30368 11.42485,57.44381 -0.1729,40.86429 -1.62002,68.00911 -4.03385,75.66667 -0.90902,2.88376 -2.02698,5.01191 -2.48436,4.72924 -0.45737,-0.28267 -0.78473,14.25011 -0.72746,32.29507 0.0964,30.38157 0.21131,32.43908 1.553,27.80902 0.79689,-2.75 3.67355,-12.65 6.39259,-22 2.71903,-9.35 5.85119,-21.46626 6.96036,-26.92503 3.68256,-18.12377 10.08206,-65.84188 11.00711,-82.07497 0.50148,-8.8 1.20897,-20.08832 1.57221,-25.08515 l 0.66042,-9.08515 -5.2821,-4.41485 c -7.54951,-6.30997 -12.40035,-16.63239 -12.4132,-26.41485 -0.0157,-11.91841 4.55661,-17.69788 14.16724,-17.90779 6.29028,-0.13739 8.0714,2.19292 9.78983,12.80843 0.77904,4.81247 1.46329,14.45356 1.52056,21.42465 0.0573,6.97109 0.57971,18.82654 1.16098,26.34544 0.58922,7.62169 0.71254,16.69255 0.2787,20.5 L 936.69408,213.5 935.52929,209 c -1.14178,-4.4111 -1.17734,-4.28268 -1.80002,6.5 -0.84141,14.57029 -7.87836,62.22359 -12.6996,86 -2.11899,10.45 -7.26143,35.65 -11.42765,56 l -7.57493,37 -0.009,21.5 c -0.0139,32.12406 3.11037,66.38726 9.56972,104.95052 2.35622,14.06693 11.2189,49.50068 15.38943,61.52824 2.10404,6.06792 10.74848,22.212 16.41413,30.65449 6.94725,10.35226 26.95332,32.61571 33.10931,36.8452 4.5912,3.15439 61.50002,27.86939 61.50002,26.70891 0,-0.15591 -1.3411,-4.08684 -2.9803,-8.73541 -1.9052,-5.40317 -2.9874,-10.44632 -3,-13.98084 -0.02,-5.47969 -0.078,-5.58647 -6.5941,-12 -9.0463,-8.9043 -22.4261,-26.84424 -27.20057,-36.47111 -6.30284,-12.70871 -17.59428,-48.81853 -24.07769,-77 -2.99038,-12.9983 -5.79145,-36.48843 -7.63166,-64 l -1.60533,-24 -4.97998,-10 c -4.46179,-8.95947 -5.08584,-11.04053 -5.99741,-20 -0.60379,-5.93449 -0.99665,-42.72737 -0.9663,-90.5 0.0469,-73.89425 0.21402,-81.85397 2.03607,-97 3.29924,-27.42521 2.59979,-35.8566 -3.27685,-39.5 -4.10344,-2.54406 -7.97428,-10.27697 -8.46181,-16.90446 -1.03076,-14.01195 10.18386,-17.21916 17.36468,-4.96603 2.30615,3.93515 2.52935,5.26823 2.36213,14.10814 -0.10156,5.36929 0.39354,13.21503 1.10021,17.43497 1.10304,6.58678 1.03315,10.26631 -0.49386,26 -1.39495,14.37305 -1.99234,35.04882 -2.76874,95.82738 -1.00835,78.93584 -0.54211,98.83865 2.48833,106.22198 l 1.34544,3.27802 0.61254,-5 c 0.33689,-2.75 1.1047,-11.75 1.70623,-20 2.09691,-28.75922 4.86845,-58.33944 6.98031,-74.5 0.53905,-4.125 1.44197,-14.025 2.00647,-22 0.56451,-7.975 1.50004,-21.025 2.07896,-29 0.57892,-7.975 1.49233,-21.025 2.02981,-29 0.53748,-7.975 1.64012,-19.88656 2.45032,-26.47014 0.81019,-6.58358 1.4632,-18.73358 1.45112,-27 -0.0187,-12.80768 -0.31442,-15.67437 -2,-19.38906 -1.0882,-2.39757 -1.97832,-5.21054 -1.97832,-6.25105 0,-1.12814 -2.42529,-3.77524 -6.008,-6.55747 -8.61877,-6.69308 -11.40989,-12.67543 -10.77875,-23.10263 0.83493,-13.79401 6.17523,-22.50238 13.7993,-22.50238 5.09899,0 8.45706,2.96903 13.15651,11.63228 l 3.33094,6.14045 -0.0766,54 c -0.0991,69.80742 -1.69443,96.69883 -7.44533,125.5 -1.59241,7.975 -3.61438,21.25 -4.49327,29.5 -0.87888,8.25 -2.24749,20.08555 -3.04136,26.30122 -1.06855,8.36635 -1.43549,22.64953 -1.41298,55 0.0291,41.76379 0.93156,53.14307 2.3951,30.19878 1.13181,-17.74385 2.54368,-31.70812 5.1564,-51 3.272,-24.15988 4.57625,-31.01488 9.89371,-52 2.43889,-9.625 5.81293,-25.375 7.49783,-35 1.6849,-9.625 4.6031,-24.475 6.4848,-33 1.8817,-8.525 3.955,-19.55 4.6073,-24.5 0.6524,-4.95 2.7066,-15.51708 4.565,-23.48241 3.9658,-16.99802 11.3604,-66.83048 12.7311,-85.79436 l 0.4536,-6.27676 -6.2965,-6.22324 c -3.4631,-3.42277 -7.7947,-7.12323 -9.6259,-8.22323 -7.0817,-4.25411 -10.0015,-15.09924 -6.0493,-22.46867 2.2353,-4.167847 5.5305,-5.232485 10.6974,-3.45617 8.206,2.82108 14.309,10.29292 16.3806,20.05471 1.6842,7.93658 0.9848,26.88358 -1.7302,46.87013 -1.1955,8.8 -3.0745,23.31688 -4.1758,32.25974 -1.1012,8.94285 -3.7797,24.01785 -5.9522,33.5 -2.1725,9.48214 -4.4742,21.06526 -5.1149,25.74026 -0.6407,4.675 -2.9159,16.0454 -5.056,25.26756 -2.14,9.22215 -5.2557,24.52215 -6.9238,34 -1.668,9.47784 -4.7742,23.98244 -6.9027,32.23244 -5.06189,19.61923 -6.4484,26.81936 -10.0136,52 -3.96203,27.98313 -7.0524,65.93178 -7.0524,86.6004 0,19.21471 1.06072,26.07605 9.15831,59.2409 l 5.08864,20.8413 5.89555,6.64145 c 3.2425,3.65281 7.9185,10.55849 10.3912,15.34598 3.1284,6.05726 5.1755,8.88642 6.731,9.30264 1.2294,0.32897 7.0931,2.93839 13.0304,5.79872 14.8808,7.16884 14.5952,7.94797 9.2902,-25.34274 -1.8781,-11.78576 -4.3628,-30.65365 -5.5216,-41.92865 -1.1588,-11.275 -2.3199,-21.625 -2.5801,-23 -0.2602,-1.375 -2.2564,-16.675 -4.4361,-34 -5.025,-39.94187 -8.2307,-60.15961 -12.8368,-80.9588 L 1013.5479,384.5 v -27 -27 l 4.1638,-23.5 c 2.2901,-12.925 4.8971,-30.025 5.7932,-38 0.8961,-7.975 2.9338,-24.175 4.5282,-36 1.5944,-11.825 3.826,-29.825 4.9593,-40 1.1332,-10.175 3.8264,-28.4 5.9848,-40.5 2.1583,-12.1 5.3234,-30.1 7.0334,-40 1.7101,-9.9 4.6566,-23.625 6.5479,-30.5 1.8912,-6.875 5.0653,-20.375 7.0534,-30 3.0621,-14.824785 3.6937,-20.136998 4.1314,-34.75 L 1064.2523,0 h 52.8741 52.874 v 1266 1266 h -57.5 -57.5 z m 0,-55.4264 c 0,-6.9971 -0.3002,-8.0631 -4.2955,-15.25 -2.3625,-4.2498 -4.95,-9.0348 -5.75,-10.6332 -1.6214,-3.2396 -8.9545,-6.6646 -8.9545,-4.1822 0,0.7188 -1.3647,3.8643 -3.0328,6.9901 -1.668,3.1258 -2.7835,6.0865 -2.4789,6.5793 0.3046,0.4929 -0.1819,1.3078 -1.0812,1.811 -2.2654,1.2678 -1.2265,3.7148 4.1218,9.708 3.2078,3.5946 4.6939,4.6434 5.287,3.7315 0.5903,-0.9076 1.5163,-0.2164 3.2546,2.4293 2.2986,3.4986 6.9012,6.0771 11.1795,6.2631 1.5183,0.066 1.75,-0.9198 1.75,-7.4469 z m -21.2416,-32.0167 c -0.4912,-0.4243 -12.7026,-6.4603 -13.0698,-6.4603 -0.2027,0 -0.9619,1.7982 -1.6872,3.9959 -1.1728,3.5533 -1.1247,4.2104 0.4339,5.9326 1.833,2.0255 4.4402,1.7574 5.8644,-0.6031 2.3235,-3.851 3.7453,1.7959 1.7641,7.0067 -1.9553,5.1428 0.2417,3.2272 3.5266,-3.075 1.8845,-3.6155 3.3101,-6.6741 3.168,-6.7968 z m -20.178,-3.0228 c -0.8993,-0.8993 -1.5804,-3.2583 -1.5804,-5.4737 0,-2.87 -0.5257,-4.1748 -2,-4.9638 -1.8656,-0.9985 -2,-0.7605 -2,3.5417 0,3.8457 0.5265,5.1387 3.1683,7.7804 1.9949,1.9949 3.3209,2.7104 3.5803,1.932 0.2267,-0.6799 -0.299,-1.9474 -1.1682,-2.8166 z m 3.4196,-1.3557 c 0,-0.505 0.2599,-1.5955 0.5776,-2.4233 0.3495,-0.9108 -0.2428,-1.9442 -1.5,-2.617 -1.9213,-1.0282 -2.0776,-0.846 -2.0776,2.4233 0,2.4757 0.4495,3.5352 1.5,3.5352 0.825,0 1.5,-0.4132 1.5,-0.9182 z m 33.25,-13.3093 c 4.4886,-2.1211 4.75,-2.4625 4.75,-6.2028 0,-4.2715 -3.8632,-25.1166 -7.0555,-38.0697 -1.0843,-4.4 -1.9654,-9.4625 -1.958,-11.25 0.01,-1.7875 -0.4365,-3.25 -0.9865,-3.25 -0.55,0 -1,0.431 -1,0.9578 0,1.836 -8.6774,6.0248 -15.824,7.6387 -5.5957,1.2636 -7.6115,2.2129 -9.0563,4.2645 -4.0727,5.7831 -6.4033,11.8035 -6.8831,17.7801 -0.4588,5.7161 -0.2172,6.7014 3.0964,12.6267 4.0616,7.2629 5.1561,8.3929 8.6048,8.8846 1.9054,0.2717 3.0447,-0.5259 5.2168,-3.6524 3.2881,-4.7328 3.405,-5.3858 1.0954,-6.1162 -4.6421,-1.4679 -9.1483,-3.7394 -8.7374,-4.4043 0.252,-0.4077 -0.8971,-2.4467 -2.5536,-4.5311 -2.9104,-3.6622 -3.3535,-5.5808 -1.3965,-6.0465 0.5156,-0.1227 3.2134,2.5492 5.9951,5.9375 3.5426,4.3151 5.8642,6.2554 7.75,6.477 l 2.6924,0.3164 v -7.0996 c 0,-5.5907 -0.5313,-8.1483 -2.5,-12.0332 -1.375,-2.7134 -2.5,-5.6786 -2.5,-6.5892 0,-2.8107 3.0153,0.4394 5.6494,6.0892 3.4835,7.4719 3.2379,15.5082 -0.7063,23.1091 -4.353,8.3887 -4.7116,11.1599 -1.5469,11.9542 3.4693,0.8707 14.6038,-7.5466 14.6038,-11.04 0,-4.8274 2.1286,-7.2364 3.4202,-3.8707 1.2046,3.1393 -1.4349,8.2614 -5.8075,11.2699 -4.9012,3.372 -7.176,5.8475 -6.2368,6.7867 0.3634,0.3635 2.3401,-0.9092 4.3925,-2.8281 6.4628,-6.0426 7.8281,-6.5631 3.454,-1.3167 -2.3223,2.7854 -4.2224,5.3729 -4.2224,5.75 0,1.3382 3.5654,0.6719 8.25,-1.5419 z m -49.9547,-23.1744 c -11.49498,-13.0589 -18.22232,-39.9678 -14.83434,-59.3362 2.27381,-12.9989 2.34796,-12.7055 -5.04149,-19.9509 -3.6193,-3.5487 -7.19237,-7.883 -7.94017,-9.6316 -0.7478,-1.7487 -2.81683,-4.5294 -4.59785,-6.1794 -4.18384,-3.8761 -8.88145,-11.2964 -8.88145,-14.0291 0,-4.1694 1.38319,-3.4109 4.14313,2.2721 1.53773,3.1664 3.86391,7.0719 5.1693,8.6789 l 2.37344,2.9219 0.0941,-3.3089 c 0.17073,-6.0051 1.81085,-5.2476 3.14238,1.4513 1.52872,7.6909 3.07767,8.5157 3.07767,1.6388 0,-6.2079 0.97648,-11.125 2.20929,-11.125 0.58803,0 0.73996,4.1603 0.39256,10.75 l -0.56673,10.75 4.33267,3.7416 4.33267,3.7417 0.64948,-9.7417 c 0.35721,-5.3579 1.14699,-11.5241 1.75506,-13.7027 1.20699,-4.3244 0.44638,-14.6193 -1.32914,-17.9899 -0.59363,-1.127 -2.98677,-4.524 -5.31808,-7.549 -2.3313,-3.025 -6.12522,-8.875 -8.43091,-13 -2.3057,-4.125 -4.89973,-8.2875 -5.76451,-9.25 -1.79695,-2 -7.88549,-2.3806 -8.50187,-0.5315 -0.31583,0.9475 -1.27969,0.9589 -4.33333,0.051 -2.15994,-0.642 -6.77772,-1.4124 -10.26173,-1.712 -4.03675,-0.3471 -9.22238,-1.7962 -14.29559,-3.9947 -4.37856,-1.8974 -11.653,-4.1781 -16.16543,-5.068 -18.73828,-3.6957 -22.68277,-6.7131 -27.2601,-20.8529 -4.15423,-12.8328 -4.81345,-13.7664 -9.22367,-13.0625 -2.68332,0.4283 -5.63574,-0.1273 -10.5897,-1.9929 -3.77798,-1.4227 -7.09861,-2.5867 -7.37917,-2.5867 -1.34751,0 1.19205,13.0323 3.43033,17.6035 3.70164,7.5597 16.70743,20.2598 24.3669,23.7941 1.89805,0.8758 6.151,3.8843 9.451,6.6856 5.20771,4.4207 16.17622,10.5739 17.13661,9.6135 0.18105,-0.181 -0.11312,-1.8714 -0.65371,-3.7563 -1.23974,-4.3227 -1.26877,-8.9404 -0.0562,-8.9404 0.50968,0 2.01576,2.3625 3.34685,5.25 2.60271,5.646 6.34084,10.4856 16.05862,20.7904 3.39231,3.5972 7.68844,9.5597 9.54694,13.25 1.85851,3.6903 3.71369,6.7096 4.12264,6.7096 0.40895,0 2.60085,-2.0149 4.8709,-4.4777 3.63607,-3.9446 4.12736,-5.0465 4.12736,-9.2566 0,-2.6284 -0.41685,-6.2324 -0.92633,-8.0088 -1.27623,-4.45 0.59064,-5.305 2.35562,-1.0789 0.76306,1.8271 1.70763,5.0304 2.09904,7.1184 0.67677,3.6103 0.80181,3.7148 2.55036,2.1324 1.90684,-1.7257 4.60253,-8.9101 5.12261,-13.6526 0.22775,-2.0768 0.63775,-2.5118 1.72604,-1.8314 1.21147,0.7575 1.23416,1.7557 0.15002,6.6001 -1.01355,4.529 -2.18593,6.6163 -5.67734,10.1077 -2.42001,2.42 -4.40002,4.7339 -4.40002,5.142 0,0.4082 -1.80535,2.9268 -4.01189,5.597 -2.20653,2.6702 -4.27969,5.922 -4.60701,7.2261 -0.39579,1.577 1.46034,7.9125 5.54133,18.9142 3.37506,9.0987 7.68814,22.3712 9.58463,29.4946 3.8839,14.5883 5.81311,18.836 14.35394,31.6047 6.48741,9.6988 20.56027,26.3688 22.26057,26.3688 0.5766,0 -0.6952,-1.9808 -2.8263,-4.4019 z m -50.78188,-122.2202 c -0.83238,-1.9922 -1.51342,-3.8018 -1.51342,-4.0215 0,-0.2196 -1.08515,-2.0771 -2.41145,-4.1278 -2.64623,-4.0916 -4.18426,-12.8771 -2.66109,-15.2006 1.22884,-1.8745 1.65227,-0.7288 2.54981,6.899 0.35121,2.9848 1.46598,6.5889 2.47726,8.0091 1.01127,1.4202 2.34317,4.4558 2.95977,6.7456 0.6166,2.2899 1.67562,4.3877 2.35339,4.6619 0.72022,0.2914 0.51067,0.5313 -0.50427,0.5775 -1.08844,0.049 -2.30143,-1.273 -3.25,-3.5432 z m 58.04568,105.1444 c -0.8575,-2.5257 -1.5139,-6.714 -1.4587,-9.3072 l 0.1004,-4.7151 1.4051,6.5 c 0.7728,3.575 1.6411,7.1345 1.9296,7.9099 0.3113,0.8369 2.6969,-2.3849 5.8695,-7.927 5.1961,-9.0769 5.3064,-9.4294 3.9594,-12.6532 -2.6629,-6.3732 -5.0724,-9.3415 -9.4518,-11.6439 -2.4269,-1.2759 -5.3126,-3.7348 -6.4126,-5.4643 -1.1,-1.7294 -2.2577,-3.1618 -2.5727,-3.183 -0.3151,-0.021 -1.60255,2.0234 -2.86115,4.5435 -2.25015,4.5055 -2.26001,4.6721 -0.59042,9.9801 1.07005,3.402 1.6889,8.6401 1.6735,14.1649 -0.0266,9.5345 2.45657,17.7452 5.06407,16.7446 0.8159,-0.313 1.8768,0.7573 2.7341,2.7584 l 1.401,3.27 0.3849,-3.1928 c 0.2117,-1.756 -0.3167,-5.2592 -1.1742,-7.7849 z m 25.0262,-13.66 c 9.4219,-3.4883 12.4063,-9.0294 12.431,-23.0802 0.01,-5.1051 0.4493,-14.4571 0.9786,-20.7821 0.5292,-6.325 1.245,-19.375 1.5906,-29 0.6197,-17.2583 0.5773,-17.7694 -3.0685,-37 -4.2911,-22.634 -9.8032,-45.7194 -11.8711,-49.7171 -0.7918,-1.5306 -4.2985,-7.3391 -7.7927,-12.9078 -3.4943,-5.5687 -7.5544,-12.1644 -9.0226,-14.6573 l -2.6694,-4.5324 -10.3306,-2.4332 c -5.68182,-1.3382 -10.45018,-2.3479 -10.59633,-2.2436 -0.14616,0.1042 0.1118,1.945 0.57323,4.0905 0.74454,3.4619 0.92322,3.6461 1.58772,1.6364 0.93024,-2.8133 2.60478,-1.9625 2.60478,1.3235 0,1.7496 0.54978,2.441 1.94098,2.441 1.06752,0 2.21912,0.45 2.55902,1 0.3658,0.5919 -0.7713,1 -2.786,1 -5.82848,0 -6.49049,1.764 -5.94218,15.8336 0.46772,12.0019 0.53778,12.3169 2.60442,11.7111 1.16807,-0.3424 3.56697,-0.8858 5.33086,-1.2075 5.7079,-1.0411 6.6953,-3.1776 6.4102,-13.8702 -0.159,-5.9656 0.1269,-9.467 0.7731,-9.467 0.5873,0 1.1503,3.3115 1.3175,7.75 l 0.2921,7.75 1.8686,-5.9138 c 1.4645,-4.6351 2.0685,-5.5565 2.7934,-4.2611 0.5903,1.0547 0.4894,3.1064 -0.2787,5.6702 -0.6621,2.2097 -0.911,4.3103 -0.5532,4.6681 0.3578,0.3578 3.5397,0.6924 7.0711,0.7436 5.0137,0.073 6.1941,0.3669 5.3872,1.343 -1.2421,1.5026 -6.0211,1.6172 -10.7598,0.2582 -2.8854,-0.8275 -3.6166,-0.7089 -4.414,0.716 -2.1705,3.8785 -5.4086,6.0175 -10.1776,6.7231 -6.00334,0.8882 -8.19854,2.696 -9.03448,7.44 -1.01012,5.7325 -5.88554,15.1512 -10.84144,20.9444 -2.50859,2.9324 -4.56108,5.8278 -4.56108,6.4342 0,1.4924 4.03061,9.7341 4.76047,9.7341 0.32012,0 1.29248,-0.6368 2.16079,-1.4152 1.74772,-1.5666 19.46214,-9.2502 22.50464,-9.7613 1.7126,-0.2877 1.8983,-1.0854 1.6764,-7.2019 -0.1372,-3.7831 -0.6663,-7.9749 -1.1759,-9.3151 -0.5095,-1.3402 -0.9264,-3.4299 -0.9264,-4.6438 0,-1.2138 -1.4018,-3.9077 -3.1152,-5.9863 -3.34808,-4.0618 -3.23146,-6.2051 0.1701,-3.1267 1.4526,1.3145 2.2781,1.5295 2.7765,0.7231 1.0162,-1.6442 5.8823,-3.3199 7.6599,-2.6378 2.387,0.916 1.7674,2.4411 -1.4913,3.6711 -1.7863,0.6743 -3,1.8528 -3,2.9131 0,2.1948 1.3296,2.2935 3.0453,0.2262 0.7096,-0.855 2.2272,-2.0537 3.3725,-2.6637 1.9381,-1.0324 1.9815,-0.9767 0.6268,0.8046 -0.8005,1.0525 -2.1505,2.7496 -3,3.7712 -1.1512,1.3843 -1.5446,4.2483 -1.5446,11.2446 0,5.163 0.2692,9.3896 0.5981,9.3926 1.1792,0.01 3.7746,-7.5873 4.225,-12.3684 0.511,-5.4246 2.4433,-7.5706 4.4269,-4.9165 1.5394,2.0596 1.61,5.7489 0.1619,8.4547 -0.9965,1.8621 -0.8494,1.9882 1.75,1.4986 7.6521,-1.441 12.5203,-1.7669 11.9216,-0.7982 -0.3466,0.5608 -2.7571,1.2995 -5.3568,1.6417 -9.7366,1.2815 -10.349,1.542 -11.8024,5.0204 -0.7647,1.8301 -2.298,3.6155 -3.4073,3.9676 -2.9941,0.9503 -2.4504,2.957 1.3564,5.0072 3.2184,1.7332 3.5745,1.7373 7.75,0.089 l 4.3766,-1.7276 -2.2278,2.2684 c -2.9102,2.9633 -8.0337,2.9878 -11.7606,0.056 l -2.8123,-2.2122 -3.0997,2.5188 c -1.7048,1.3853 -6.4055,4.3803 -10.44595,6.6554 -7.06743,3.9797 -7.32476,4.2547 -6.77779,7.2435 0.3127,1.7087 2.83106,7.514 5.59634,12.9007 2.76529,5.3867 5.0278,10.3773 5.0278,11.0903 0,0.713 1.6875,2.4986 3.75,3.9682 l 3.75,2.6719 0.5641,-2.2622 c 0.5511,-2.21 0.5996,-2.1954 2.1028,0.6306 1.7448,3.2803 1.9106,3.1169 4.3174,-4.2545 1.0941,-3.3509 1.5645,-7.0133 1.2542,-9.7658 -0.5516,-4.8942 0.819,-6.6981 2.9132,-3.8341 2.2185,3.034 1.5925,9.4421 -1.577,16.1417 l -2.9236,6.1801 3.1744,2.4516 c 3.0256,2.3367 3.1637,2.7453 2.9448,8.7131 l -0.2297,6.2614 3.399,-3.8932 c 4.4249,-5.0682 5.9536,-10.654 5.3239,-19.4539 -0.4259,-5.9527 -0.2676,-6.9898 1.028,-6.7375 0.8423,0.1641 2.0397,1.8088 2.6609,3.6549 l 1.1295,3.3565 1.3176,-2.8565 c 2.8877,-6.2605 4.07,-11.933 3.4614,-16.6066 -0.3402,-2.6125 -0.3723,-4.75 -0.071,-4.75 0.301,0 1.5439,1.6126 2.7621,3.5836 2.0037,3.2421 2.0985,3.9807 0.9945,7.75 -1.7774,6.0688 -6.1857,15.998 -7.6483,17.227 -1.9272,1.6194 -5.3518,11.2881 -4.1411,11.6917 2.3204,0.7734 -3.3556,6.9038 -22.6383,24.4504 -2.5402,2.3115 -4.6185,4.9761 -4.6185,5.9214 0,1.7861 8.2932,10.3759 10.0176,10.3759 0.5403,0 0.9824,-1.6195 0.9824,-3.5989 0,-4.3006 1.9355,-8.654 6.0865,-13.6899 4.9218,-5.9709 5.3732,-4.2902 0.9835,3.6619 -3.0881,5.5943 -4.0547,8.4291 -4.0066,11.75 0.047,3.2626 0.2707,3.8677 0.8776,2.3769 0.9389,-2.3066 10.1374,-11.7549 10.7994,-11.0929 1.1661,1.1661 -1.2865,4.9259 -4.6769,7.1696 -5.5291,3.659 -6.2337,5.9177 -3.6743,11.7793 l 2.1195,4.854 4.7025,-5.105 c 2.5864,-2.8078 5.1719,-5.105 5.7456,-5.105 2.1678,0 0.8693,2.9593 -4.4369,10.1125 -3.014,4.0631 -5.489,7.7553 -5.5,8.2049 -0.022,0.8892 1.7845,0.4256 9.5654,-2.4551 z m -20.295,-45.3243 4.7902,-3.7379 -0.2902,-7.6456 -0.2903,-7.6457 -6.009,-3.0044 c -3.3049,-1.6524 -7.3549,-3.9675 -9,-5.1446 l -2.991,-2.1403 0.1239,15.1403 c 0.0681,8.3271 -0.18564,18.1991 -0.56396,21.9378 l -0.68785,6.7977 5.06391,-5.4097 c 2.7852,-2.9753 7.2196,-7.0917 9.8543,-9.1476 z M 905.8129,412.31689 c 0.72187,-0.28887 1.58438,-0.25335 1.91667,0.0789 0.33229,0.33229 -0.25834,0.56864 -1.3125,0.52522 -1.16495,-0.048 -1.4019,-0.28494 -0.60417,-0.60416 z m 4,-1 c 0.72187,-0.28887 1.58438,-0.25335 1.91667,0.0789 0.33229,0.33229 -0.25834,0.56864 -1.3125,0.52522 -1.16495,-0.048 -1.4019,-0.28494 -0.60417,-0.60416 z"
       id="path117" />
  </g>
</svg>
